<svg width="416" height="109" viewBox="0 0 416 109" fill="none" xmlns="http://www.w3.org/2000/svg">
<path d="M9.61993 23.0423C9.61993 23.0676 9.61089 23.6418 9.61089 24.3257V24.3543C9.61089 25.0367 10.149 25.5976 10.8308 25.6259C12.2223 25.6935 12.7102 25.8454 13.0084 26.3098C13.1892 26.58 13.1892 26.7911 13.2163 35.4961C13.2434 44.8006 13.2434 44.8006 12.8548 45.2903C12.6108 45.6027 12.2042 45.704 10.8127 45.7631C10.1437 45.796 9.62238 46.3555 9.63681 47.0252L9.638 47.0803C9.65306 47.7748 10.2204 48.3299 10.915 48.3299H18.1861C22.8667 48.3299 26.698 48.3637 26.698 48.3974C26.698 48.4312 26.4811 48.7014 26.2281 49.0053C25.3968 49.951 23.6619 51.952 22.3788 53.4212C21.7011 54.198 21.0415 54.9578 20.9149 55.1098C20.6439 55.4476 19.0897 57.2206 19.0174 57.2797C18.9903 57.3051 18.6559 57.685 18.2855 58.1241C17.906 58.5631 16.7313 59.914 15.6831 61.1214C14.6259 62.3288 13.4964 63.6291 13.162 64.0175C12.8277 64.4059 11.9512 65.4106 11.2193 66.2549C10.4874 67.0993 9.59282 68.1294 9.23138 68.5431C8.86994 68.9568 8.27356 69.6407 7.90308 70.0713C7.53261 70.5019 6.73744 71.4138 6.14106 72.1061C5.54468 72.79 4.91216 73.5162 4.74048 73.7104C4.5688 73.9046 4.36097 74.1325 4.28868 74.217C2.98749 75.7283 2.50858 76.2771 1.91221 76.9526C0.909209 78.0755 0.954389 78.0333 0.421264 78.6666C-0.111861 79.2914 -0.138969 79.3758 0.33994 78.9536C0.864029 78.4977 4.26157 75.4497 5.41818 74.4111C6.01456 73.8708 6.99045 73.0011 7.58682 72.4692C8.1832 71.9373 9.13198 71.0845 9.71029 70.561C10.2796 70.046 10.8759 69.514 11.0205 69.3874C11.1741 69.2692 11.7434 68.7626 12.2856 68.2644C12.8367 67.7747 14.156 66.5927 15.2223 65.6386C17.8337 63.3082 19.2252 62.0586 20.418 60.9779C20.9601 60.4882 21.5113 59.9985 21.6378 59.8972C21.7643 59.7958 22.3336 59.2892 22.9029 58.7742C23.8517 57.913 26.1107 55.8866 28.6317 53.6407C29.1739 53.1594 30.1136 52.3151 30.71 51.7747L31.5823 50.9866C31.6996 50.8806 31.6973 50.6957 31.5774 50.5927C31.4509 50.4829 30.9178 50.0354 30.4028 49.5879C29.8787 49.1404 29.3636 48.7098 29.2552 48.617C28.948 48.389 29.0022 48.3299 29.463 48.3637C29.9239 48.3974 29.9419 48.389 30.5293 47.7135C30.7552 47.4518 30.9449 47.3167 31.0353 47.342C31.1528 47.3673 31.3967 46.7425 32.3726 43.8296C33.0322 41.8792 33.5563 40.275 33.5383 40.2581C33.5112 40.2328 32.5624 40.0808 31.3425 39.9204C31.1275 39.8903 30.918 40.0035 30.8254 40.1998L30.5112 40.866C29.2913 43.4412 28.2432 44.4206 26.3275 44.7584C25.189 44.961 19.93 44.9695 19.4601 44.7753C18.8096 44.4966 18.8367 44.8766 18.8367 35.4201C18.8367 30.7932 18.8728 26.8671 18.918 26.6898C18.9632 26.504 19.0987 26.2676 19.2162 26.1494C19.5776 25.7779 19.9662 25.685 21.3035 25.6344C21.9939 25.6108 22.5414 25.0443 22.5414 24.3535V24.3003C22.5414 23.5822 21.9593 23.0001 21.2412 23.0001H16.0807C12.5295 23.0001 9.61993 23.0169 9.61993 23.0423Z" fill="#E9CF8C"/>
<path d="M9.61993 23.0423C9.61993 23.0676 9.61089 23.6418 9.61089 24.3257V24.3543C9.61089 25.0367 10.149 25.5976 10.8308 25.6259C12.2223 25.6935 12.7102 25.8454 13.0084 26.3098C13.1892 26.58 13.1892 26.7911 13.2163 35.4961C13.2434 44.8006 13.2434 44.8006 12.8548 45.2903C12.6108 45.6027 12.2042 45.704 10.8127 45.7631C10.1437 45.796 9.62238 46.3555 9.63681 47.0252L9.638 47.0803C9.65306 47.7748 10.2204 48.3299 10.915 48.3299H18.1861C22.8667 48.3299 26.698 48.3637 26.698 48.3974C26.698 48.4312 26.4811 48.7014 26.2281 49.0053C25.3968 49.951 23.6619 51.952 22.3788 53.4212C21.7011 54.198 21.0415 54.9578 20.9149 55.1098C20.6439 55.4476 19.0897 57.2206 19.0174 57.2797C18.9903 57.3051 18.6559 57.685 18.2855 58.1241C17.906 58.5631 16.7313 59.914 15.6831 61.1214C14.6259 62.3288 13.4964 63.6291 13.162 64.0175C12.8277 64.4059 11.9512 65.4106 11.2193 66.2549C10.4874 67.0993 9.59282 68.1294 9.23138 68.5431C8.86994 68.9568 8.27356 69.6407 7.90308 70.0713C7.53261 70.5019 6.73744 71.4138 6.14106 72.1061C5.54468 72.79 4.91216 73.5162 4.74048 73.7104C4.5688 73.9046 4.36097 74.1325 4.28868 74.217C2.98749 75.7283 2.50858 76.2771 1.91221 76.9526C0.909209 78.0755 0.954389 78.0333 0.421264 78.6666C-0.111861 79.2914 -0.138969 79.3758 0.33994 78.9536C0.864029 78.4977 4.26157 75.4497 5.41818 74.4111C6.01456 73.8708 6.99045 73.0011 7.58682 72.4692C8.1832 71.9373 9.13198 71.0845 9.71029 70.561C10.2796 70.046 10.8759 69.514 11.0205 69.3874C11.1741 69.2692 11.7434 68.7626 12.2856 68.2644C12.8367 67.7747 14.156 66.5927 15.2223 65.6386C17.8337 63.3082 19.2252 62.0586 20.418 60.9779C20.9601 60.4882 21.5113 59.9985 21.6378 59.8972C21.7643 59.7958 22.3336 59.2892 22.9029 58.7742C23.8517 57.913 26.1107 55.8866 28.6317 53.6407C29.1739 53.1594 30.1136 52.3151 30.71 51.7747L31.5823 50.9866C31.6996 50.8806 31.6973 50.6957 31.5774 50.5927C31.4509 50.4829 30.9178 50.0354 30.4028 49.5879C29.8787 49.1404 29.3636 48.7098 29.2552 48.617C28.948 48.389 29.0022 48.3299 29.463 48.3637C29.9239 48.3974 29.9419 48.389 30.5293 47.7135C30.7552 47.4518 30.9449 47.3167 31.0353 47.342C31.1528 47.3673 31.3967 46.7425 32.3726 43.8296C33.0322 41.8792 33.5563 40.275 33.5383 40.2581C33.5112 40.2328 32.5624 40.0808 31.3425 39.9204C31.1275 39.8903 30.918 40.0035 30.8254 40.1998L30.5112 40.866C29.2913 43.4412 28.2432 44.4206 26.3275 44.7584C25.189 44.961 19.93 44.9695 19.4601 44.7753C18.8096 44.4966 18.8367 44.8766 18.8367 35.4201C18.8367 30.7932 18.8728 26.8671 18.918 26.6898C18.9632 26.504 19.0987 26.2676 19.2162 26.1494C19.5776 25.7779 19.9662 25.685 21.3035 25.6344C21.9939 25.6108 22.5414 25.0443 22.5414 24.3535V24.3003C22.5414 23.5822 21.9593 23.0001 21.2412 23.0001H16.0807C12.5295 23.0001 9.61993 23.0169 9.61993 23.0423Z" fill="url(#paint0_linear_146_20)" fill-opacity="0.69"/>
<path d="M9.61993 23.0423C9.61993 23.0676 9.61089 23.6418 9.61089 24.3257V24.3543C9.61089 25.0367 10.149 25.5976 10.8308 25.6259C12.2223 25.6935 12.7102 25.8454 13.0084 26.3098C13.1892 26.58 13.1892 26.7911 13.2163 35.4961C13.2434 44.8006 13.2434 44.8006 12.8548 45.2903C12.6108 45.6027 12.2042 45.704 10.8127 45.7631C10.1437 45.796 9.62238 46.3555 9.63681 47.0252L9.638 47.0803C9.65306 47.7748 10.2204 48.3299 10.915 48.3299H18.1861C22.8667 48.3299 26.698 48.3637 26.698 48.3974C26.698 48.4312 26.4811 48.7014 26.2281 49.0053C25.3968 49.951 23.6619 51.952 22.3788 53.4212C21.7011 54.198 21.0415 54.9578 20.9149 55.1098C20.6439 55.4476 19.0897 57.2206 19.0174 57.2797C18.9903 57.3051 18.6559 57.685 18.2855 58.1241C17.906 58.5631 16.7313 59.914 15.6831 61.1214C14.6259 62.3288 13.4964 63.6291 13.162 64.0175C12.8277 64.4059 11.9512 65.4106 11.2193 66.2549C10.4874 67.0993 9.59282 68.1294 9.23138 68.5431C8.86994 68.9568 8.27356 69.6407 7.90308 70.0713C7.53261 70.5019 6.73744 71.4138 6.14106 72.1061C5.54468 72.79 4.91216 73.5162 4.74048 73.7104C4.5688 73.9046 4.36097 74.1325 4.28868 74.217C2.98749 75.7283 2.50858 76.2771 1.91221 76.9526C0.909209 78.0755 0.954389 78.0333 0.421264 78.6666C-0.111861 79.2914 -0.138969 79.3758 0.33994 78.9536C0.864029 78.4977 4.26157 75.4497 5.41818 74.4111C6.01456 73.8708 6.99045 73.0011 7.58682 72.4692C8.1832 71.9373 9.13198 71.0845 9.71029 70.561C10.2796 70.046 10.8759 69.514 11.0205 69.3874C11.1741 69.2692 11.7434 68.7626 12.2856 68.2644C12.8367 67.7747 14.156 66.5927 15.2223 65.6386C17.8337 63.3082 19.2252 62.0586 20.418 60.9779C20.9601 60.4882 21.5113 59.9985 21.6378 59.8972C21.7643 59.7958 22.3336 59.2892 22.9029 58.7742C23.8517 57.913 26.1107 55.8866 28.6317 53.6407C29.1739 53.1594 30.1136 52.3151 30.71 51.7747L31.5823 50.9866C31.6996 50.8806 31.6973 50.6957 31.5774 50.5927C31.4509 50.4829 30.9178 50.0354 30.4028 49.5879C29.8787 49.1404 29.3636 48.7098 29.2552 48.617C28.948 48.389 29.0022 48.3299 29.463 48.3637C29.9239 48.3974 29.9419 48.389 30.5293 47.7135C30.7552 47.4518 30.9449 47.3167 31.0353 47.342C31.1528 47.3673 31.3967 46.7425 32.3726 43.8296C33.0322 41.8792 33.5563 40.275 33.5383 40.2581C33.5112 40.2328 32.5624 40.0808 31.3425 39.9204C31.1275 39.8903 30.918 40.0035 30.8254 40.1998L30.5112 40.866C29.2913 43.4412 28.2432 44.4206 26.3275 44.7584C25.189 44.961 19.93 44.9695 19.4601 44.7753C18.8096 44.4966 18.8367 44.8766 18.8367 35.4201C18.8367 30.7932 18.8728 26.8671 18.918 26.6898C18.9632 26.504 19.0987 26.2676 19.2162 26.1494C19.5776 25.7779 19.9662 25.685 21.3035 25.6344C21.9939 25.6108 22.5414 25.0443 22.5414 24.3535V24.3003C22.5414 23.5822 21.9593 23.0001 21.2412 23.0001H16.0807C12.5295 23.0001 9.61993 23.0169 9.61993 23.0423Z" fill="black" fill-opacity="0.2"/>
<path d="M63.7457 29.0876C63.6192 29.1889 63.1313 29.5942 62.6614 29.9995C61.4144 31.0633 59.5259 32.6675 57.8813 34.0522C57.4928 34.3815 56.7789 34.9894 56.2006 35.4876C55.9025 35.7493 55.2519 36.3066 54.7549 36.7288C52.2338 38.8733 51.52 39.4728 50.7339 40.1314C49.4056 41.2459 48.6646 41.9636 47.8333 42.9261C47.4086 43.4158 46.8032 44.1166 46.4779 44.4881C44.8604 46.3456 42.5924 48.9546 42.0683 49.5541C41.743 49.9256 41.4177 50.2971 41.3364 50.39C41.2641 50.4744 41.0563 50.7108 40.8846 50.905C40.7129 51.0992 40.4418 51.4116 40.2882 51.5889C40.1346 51.7747 39.4117 52.6021 38.6798 53.438C37.0353 55.3208 36.8094 55.5741 33.0594 59.8971C31.3877 61.8222 29.6709 63.7979 29.2372 64.2876C27.6649 66.0607 27.5113 66.2464 27.5113 66.3478C27.5113 66.4322 29.5263 68.2728 29.6709 68.315C29.698 68.3235 30.0685 67.9351 30.4932 67.4454C30.9179 66.9557 31.4962 66.2802 31.7853 65.9509C32.0745 65.6132 32.3817 65.267 32.463 65.1741C32.5444 65.0813 32.8696 64.7098 33.1859 64.3467C33.5022 63.9921 33.7913 63.6966 33.8365 63.6966C33.8817 63.6966 33.9269 63.8232 33.9449 63.9668C33.9605 64.1264 34.0915 64.25 34.2518 64.2563L35.0564 64.2876C36.0955 64.3298 36.1678 64.3467 36.6015 64.6084C37.0081 64.8449 37.5051 65.3177 37.8846 65.8158C37.975 65.934 37.9931 67.724 37.975 74.6475C37.9479 84.0364 37.966 83.6565 37.4599 83.876C37.2702 83.9604 35.6889 84.104 34.7582 84.1293C34.6441 84.1293 34.5524 84.2231 34.5549 84.3371L34.5775 85.3704C34.5925 86.0649 35.1598 86.6201 35.8545 86.6201H39.8455H43.8367C44.5269 86.6201 45.0863 86.0606 45.0863 85.3704V85.3327C45.0863 84.6534 44.5456 84.0974 43.8665 84.0786C42.3394 84.028 41.9328 83.9098 41.7701 83.4707C41.6436 83.0992 41.5442 70.2823 41.6798 70.2823C41.7249 70.2823 41.978 70.5356 42.249 70.848C42.5201 71.1604 43.3514 72.1061 44.0924 72.9504C44.8424 73.7947 46.1436 75.2723 46.9839 76.2348C48.7098 78.2021 50.7248 80.4902 52.4417 82.4406C53.0742 83.1583 54.2308 84.4839 55.0169 85.3704L55.7658 86.2252C56.1972 86.7176 56.8201 87 57.4747 87C58.0391 87 58.4969 86.5433 58.4983 85.9789L58.5229 76.1335C58.55 67.6818 58.5862 65.191 58.6675 64.9462C58.8572 64.4311 59.1374 64.3467 60.7006 64.3045L60.7712 64.3027C61.4709 64.2849 62.0289 63.7126 62.0289 63.0127C62.0289 62.3179 61.4656 61.7546 60.7708 61.7546H56.7428H52.6892C52.0079 61.7546 51.4599 62.3147 51.4748 62.9958C51.49 63.6963 52.0508 64.2625 52.7512 64.2843L52.8573 64.2876C54.6374 64.3551 54.7368 64.4142 54.8904 65.495C54.9989 66.2633 55.0079 77.1214 54.8995 77.1214C54.8633 77.1214 54.0772 76.2602 53.1645 75.2047C52.2519 74.1578 51.1947 72.9504 50.8242 72.5282C50.4447 72.1061 49.7037 71.2533 49.1616 70.6369C48.023 69.3198 47.9869 69.2776 47.5712 68.8047C47.011 68.1715 46.1887 67.2259 45.2219 66.1113C44.6978 65.5203 43.9478 64.6591 43.5502 64.2032C43.1526 63.7557 42.5111 63.0211 42.1225 62.5736C41.6748 62.0533 41.0237 61.7524 40.3372 61.7485L38.4449 61.7377L37.3237 61.7282C36.5972 61.722 36.2133 60.8658 36.6919 60.3193C37.3605 59.5509 38.4629 58.2929 39.1226 57.5245C39.7912 56.7478 40.3876 56.0638 40.4509 56.0047C40.5141 55.9372 40.7129 55.7177 40.8846 55.5066C41.0563 55.2955 41.2189 55.1098 41.246 55.0844C41.2731 55.0591 41.5352 54.7551 41.8334 54.409C42.1316 54.0628 42.4207 53.7335 42.4659 53.6828C42.5201 53.6322 42.8454 53.2522 43.2069 52.8385C43.5683 52.4248 44.8876 50.905 46.1436 49.4697C48.2851 47.0042 49.1254 46.0417 51.3212 43.5087C51.8182 42.9346 52.6224 42.0058 53.1194 41.4485C54.041 40.4016 57.8994 35.9604 59.4084 34.2211C59.8783 33.6807 60.5921 32.8617 60.9897 32.3974C62.6404 30.5168 63.4748 29.5574 63.8125 29.1531C63.943 28.9969 63.9098 28.9671 63.7457 29.0876Z" fill="#E9CF8C"/>
<path d="M63.7457 29.0876C63.6192 29.1889 63.1313 29.5942 62.6614 29.9995C61.4144 31.0633 59.5259 32.6675 57.8813 34.0522C57.4928 34.3815 56.7789 34.9894 56.2006 35.4876C55.9025 35.7493 55.2519 36.3066 54.7549 36.7288C52.2338 38.8733 51.52 39.4728 50.7339 40.1314C49.4056 41.2459 48.6646 41.9636 47.8333 42.9261C47.4086 43.4158 46.8032 44.1166 46.4779 44.4881C44.8604 46.3456 42.5924 48.9546 42.0683 49.5541C41.743 49.9256 41.4177 50.2971 41.3364 50.39C41.2641 50.4744 41.0563 50.7108 40.8846 50.905C40.7129 51.0992 40.4418 51.4116 40.2882 51.5889C40.1346 51.7747 39.4117 52.6021 38.6798 53.438C37.0353 55.3208 36.8094 55.5741 33.0594 59.8971C31.3877 61.8222 29.6709 63.7979 29.2372 64.2876C27.6649 66.0607 27.5113 66.2464 27.5113 66.3478C27.5113 66.4322 29.5263 68.2728 29.6709 68.315C29.698 68.3235 30.0685 67.9351 30.4932 67.4454C30.9179 66.9557 31.4962 66.2802 31.7853 65.9509C32.0745 65.6132 32.3817 65.267 32.463 65.1741C32.5444 65.0813 32.8696 64.7098 33.1859 64.3467C33.5022 63.9921 33.7913 63.6966 33.8365 63.6966C33.8817 63.6966 33.9269 63.8232 33.9449 63.9668C33.9605 64.1264 34.0915 64.25 34.2518 64.2563L35.0564 64.2876C36.0955 64.3298 36.1678 64.3467 36.6015 64.6084C37.0081 64.8449 37.5051 65.3177 37.8846 65.8158C37.975 65.934 37.9931 67.724 37.975 74.6475C37.9479 84.0364 37.966 83.6565 37.4599 83.876C37.2702 83.9604 35.6889 84.104 34.7582 84.1293C34.6441 84.1293 34.5524 84.2231 34.5549 84.3371L34.5775 85.3704C34.5925 86.0649 35.1598 86.6201 35.8545 86.6201H39.8455H43.8367C44.5269 86.6201 45.0863 86.0606 45.0863 85.3704V85.3327C45.0863 84.6534 44.5456 84.0974 43.8665 84.0786C42.3394 84.028 41.9328 83.9098 41.7701 83.4707C41.6436 83.0992 41.5442 70.2823 41.6798 70.2823C41.7249 70.2823 41.978 70.5356 42.249 70.848C42.5201 71.1604 43.3514 72.1061 44.0924 72.9504C44.8424 73.7947 46.1436 75.2723 46.9839 76.2348C48.7098 78.2021 50.7248 80.4902 52.4417 82.4406C53.0742 83.1583 54.2308 84.4839 55.0169 85.3704L55.7658 86.2252C56.1972 86.7176 56.8201 87 57.4747 87C58.0391 87 58.4969 86.5433 58.4983 85.9789L58.5229 76.1335C58.55 67.6818 58.5862 65.191 58.6675 64.9462C58.8572 64.4311 59.1374 64.3467 60.7006 64.3045L60.7712 64.3027C61.4709 64.2849 62.0289 63.7126 62.0289 63.0127C62.0289 62.3179 61.4656 61.7546 60.7708 61.7546H56.7428H52.6892C52.0079 61.7546 51.4599 62.3147 51.4748 62.9958C51.49 63.6963 52.0508 64.2625 52.7512 64.2843L52.8573 64.2876C54.6374 64.3551 54.7368 64.4142 54.8904 65.495C54.9989 66.2633 55.0079 77.1214 54.8995 77.1214C54.8633 77.1214 54.0772 76.2602 53.1645 75.2047C52.2519 74.1578 51.1947 72.9504 50.8242 72.5282C50.4447 72.1061 49.7037 71.2533 49.1616 70.6369C48.023 69.3198 47.9869 69.2776 47.5712 68.8047C47.011 68.1715 46.1887 67.2259 45.2219 66.1113C44.6978 65.5203 43.9478 64.6591 43.5502 64.2032C43.1526 63.7557 42.5111 63.0211 42.1225 62.5736C41.6748 62.0533 41.0237 61.7524 40.3372 61.7485L38.4449 61.7377L37.3237 61.7282C36.5972 61.722 36.2133 60.8658 36.6919 60.3193C37.3605 59.5509 38.4629 58.2929 39.1226 57.5245C39.7912 56.7478 40.3876 56.0638 40.4509 56.0047C40.5141 55.9372 40.7129 55.7177 40.8846 55.5066C41.0563 55.2955 41.2189 55.1098 41.246 55.0844C41.2731 55.0591 41.5352 54.7551 41.8334 54.409C42.1316 54.0628 42.4207 53.7335 42.4659 53.6828C42.5201 53.6322 42.8454 53.2522 43.2069 52.8385C43.5683 52.4248 44.8876 50.905 46.1436 49.4697C48.2851 47.0042 49.1254 46.0417 51.3212 43.5087C51.8182 42.9346 52.6224 42.0058 53.1194 41.4485C54.041 40.4016 57.8994 35.9604 59.4084 34.2211C59.8783 33.6807 60.5921 32.8617 60.9897 32.3974C62.6404 30.5168 63.4748 29.5574 63.8125 29.1531C63.943 28.9969 63.9098 28.9671 63.7457 29.0876Z" fill="url(#paint1_linear_146_20)" fill-opacity="0.69"/>
<path d="M63.7457 29.0876C63.6192 29.1889 63.1313 29.5942 62.6614 29.9995C61.4144 31.0633 59.5259 32.6675 57.8813 34.0522C57.4928 34.3815 56.7789 34.9894 56.2006 35.4876C55.9025 35.7493 55.2519 36.3066 54.7549 36.7288C52.2338 38.8733 51.52 39.4728 50.7339 40.1314C49.4056 41.2459 48.6646 41.9636 47.8333 42.9261C47.4086 43.4158 46.8032 44.1166 46.4779 44.4881C44.8604 46.3456 42.5924 48.9546 42.0683 49.5541C41.743 49.9256 41.4177 50.2971 41.3364 50.39C41.2641 50.4744 41.0563 50.7108 40.8846 50.905C40.7129 51.0992 40.4418 51.4116 40.2882 51.5889C40.1346 51.7747 39.4117 52.6021 38.6798 53.438C37.0353 55.3208 36.8094 55.5741 33.0594 59.8971C31.3877 61.8222 29.6709 63.7979 29.2372 64.2876C27.6649 66.0607 27.5113 66.2464 27.5113 66.3478C27.5113 66.4322 29.5263 68.2728 29.6709 68.315C29.698 68.3235 30.0685 67.9351 30.4932 67.4454C30.9179 66.9557 31.4962 66.2802 31.7853 65.9509C32.0745 65.6132 32.3817 65.267 32.463 65.1741C32.5444 65.0813 32.8696 64.7098 33.1859 64.3467C33.5022 63.9921 33.7913 63.6966 33.8365 63.6966C33.8817 63.6966 33.9269 63.8232 33.9449 63.9668C33.9605 64.1264 34.0915 64.25 34.2518 64.2563L35.0564 64.2876C36.0955 64.3298 36.1678 64.3467 36.6015 64.6084C37.0081 64.8449 37.5051 65.3177 37.8846 65.8158C37.975 65.934 37.9931 67.724 37.975 74.6475C37.9479 84.0364 37.966 83.6565 37.4599 83.876C37.2702 83.9604 35.6889 84.104 34.7582 84.1293C34.6441 84.1293 34.5524 84.2231 34.5549 84.3371L34.5775 85.3704C34.5925 86.0649 35.1598 86.6201 35.8545 86.6201H39.8455H43.8367C44.5269 86.6201 45.0863 86.0606 45.0863 85.3704V85.3327C45.0863 84.6534 44.5456 84.0974 43.8665 84.0786C42.3394 84.028 41.9328 83.9098 41.7701 83.4707C41.6436 83.0992 41.5442 70.2823 41.6798 70.2823C41.7249 70.2823 41.978 70.5356 42.249 70.848C42.5201 71.1604 43.3514 72.1061 44.0924 72.9504C44.8424 73.7947 46.1436 75.2723 46.9839 76.2348C48.7098 78.2021 50.7248 80.4902 52.4417 82.4406C53.0742 83.1583 54.2308 84.4839 55.0169 85.3704L55.7658 86.2252C56.1972 86.7176 56.8201 87 57.4747 87C58.0391 87 58.4969 86.5433 58.4983 85.9789L58.5229 76.1335C58.55 67.6818 58.5862 65.191 58.6675 64.9462C58.8572 64.4311 59.1374 64.3467 60.7006 64.3045L60.7712 64.3027C61.4709 64.2849 62.0289 63.7126 62.0289 63.0127C62.0289 62.3179 61.4656 61.7546 60.7708 61.7546H56.7428H52.6892C52.0079 61.7546 51.4599 62.3147 51.4748 62.9958C51.49 63.6963 52.0508 64.2625 52.7512 64.2843L52.8573 64.2876C54.6374 64.3551 54.7368 64.4142 54.8904 65.495C54.9989 66.2633 55.0079 77.1214 54.8995 77.1214C54.8633 77.1214 54.0772 76.2602 53.1645 75.2047C52.2519 74.1578 51.1947 72.9504 50.8242 72.5282C50.4447 72.1061 49.7037 71.2533 49.1616 70.6369C48.023 69.3198 47.9869 69.2776 47.5712 68.8047C47.011 68.1715 46.1887 67.2259 45.2219 66.1113C44.6978 65.5203 43.9478 64.6591 43.5502 64.2032C43.1526 63.7557 42.5111 63.0211 42.1225 62.5736C41.6748 62.0533 41.0237 61.7524 40.3372 61.7485L38.4449 61.7377L37.3237 61.7282C36.5972 61.722 36.2133 60.8658 36.6919 60.3193C37.3605 59.5509 38.4629 58.2929 39.1226 57.5245C39.7912 56.7478 40.3876 56.0638 40.4509 56.0047C40.5141 55.9372 40.7129 55.7177 40.8846 55.5066C41.0563 55.2955 41.2189 55.1098 41.246 55.0844C41.2731 55.0591 41.5352 54.7551 41.8334 54.409C42.1316 54.0628 42.4207 53.7335 42.4659 53.6828C42.5201 53.6322 42.8454 53.2522 43.2069 52.8385C43.5683 52.4248 44.8876 50.905 46.1436 49.4697C48.2851 47.0042 49.1254 46.0417 51.3212 43.5087C51.8182 42.9346 52.6224 42.0058 53.1194 41.4485C54.041 40.4016 57.8994 35.9604 59.4084 34.2211C59.8783 33.6807 60.5921 32.8617 60.9897 32.3974C62.6404 30.5168 63.4748 29.5574 63.8125 29.1531C63.943 28.9969 63.9098 28.9671 63.7457 29.0876Z" fill="black" fill-opacity="0.2"/>
<path d="M108.934 73H81.0195V71.9805C81.8633 71.9805 82.6133 71.9336 83.2695 71.8398C83.9258 71.7227 84.4648 71.5117 84.8867 71.207C85.332 70.8789 85.6719 70.4219 85.9062 69.8359C86.1406 69.25 86.2578 68.4766 86.2578 67.5156V42.5547C86.2578 41.6172 86.1406 40.8555 85.9062 40.2695C85.6719 39.6836 85.332 39.2383 84.8867 38.9336C84.4648 38.6055 83.9258 38.3828 83.2695 38.2656C82.6133 38.1484 81.8633 38.0898 81.0195 38.0898V37.0703H96.6289V38.0898C95.7617 38.0898 95 38.1484 94.3438 38.2656C93.6875 38.3828 93.1367 38.6055 92.6914 38.9336C92.2461 39.2383 91.9062 39.6836 91.6719 40.2695C91.4375 40.8555 91.3203 41.6172 91.3203 42.5547V66.2148C91.3203 67.1055 91.3906 67.8438 91.5312 68.4297C91.6719 68.9922 91.9062 69.4492 92.2344 69.8008C92.5859 70.1289 93.0547 70.3633 93.6406 70.5039C94.2266 70.6211 94.9648 70.6797 95.8555 70.6797H99.4414C101.176 70.6797 102.629 70.5859 103.801 70.3984C104.973 70.1875 105.98 69.8125 106.824 69.2734C107.691 68.7109 108.453 67.9375 109.109 66.9531C109.766 65.9453 110.434 64.6445 111.113 63.0508L112.027 63.1914L108.934 73ZM149.83 73H122.197V71.9805C123.322 71.9805 124.213 71.9102 124.869 71.7695C125.549 71.6289 126.065 71.3711 126.416 70.9961C126.768 70.5977 127.002 70.0586 127.119 69.3789C127.236 68.6758 127.295 67.7734 127.295 66.6719V43.2578C127.295 42.1328 127.248 41.2305 127.154 40.5508C127.061 39.8711 126.838 39.3438 126.486 38.9688C126.135 38.5938 125.619 38.3477 124.94 38.2305C124.26 38.0898 123.346 38.0195 122.197 38.0195V37.0703H149.83L150.252 44.9102H149.268C148.963 43.7617 148.67 42.8125 148.389 42.0625C148.131 41.2891 147.768 40.6797 147.299 40.2344C146.854 39.7891 146.232 39.4727 145.436 39.2852C144.662 39.0977 143.607 39.0039 142.272 39.0039H132.357V53.207H140.268C141.369 53.207 142.248 53.1367 142.904 52.9961C143.584 52.832 144.123 52.5625 144.522 52.1875C144.943 51.7891 145.248 51.2617 145.436 50.6055C145.647 49.9258 145.822 49.0586 145.963 48.0039H146.947V60.5547H145.963C145.822 59.5 145.647 58.6328 145.436 57.9531C145.248 57.2734 144.955 56.7344 144.557 56.3359C144.158 55.9141 143.619 55.6211 142.94 55.457C142.283 55.293 141.393 55.2109 140.268 55.2109H132.357V67.0234C132.357 67.6797 132.369 68.2656 132.393 68.7812C132.44 69.2734 132.557 69.6953 132.744 70.0469C132.932 70.375 133.225 70.6328 133.623 70.8203C134.045 70.9844 134.631 71.0664 135.381 71.0664H141.428C142.998 71.0664 144.287 70.9375 145.295 70.6797C146.303 70.4219 147.17 70.0117 147.897 69.4492C148.647 68.8867 149.315 68.1602 149.9 67.2695C150.486 66.3555 151.143 65.2656 151.869 64H152.994L149.83 73ZM199.164 54.8594C199.164 57.4141 198.742 59.8398 197.899 62.1367C197.055 64.4336 195.86 66.4609 194.313 68.2188C192.789 69.9531 190.938 71.3359 188.758 72.3672C186.602 73.375 184.188 73.8789 181.516 73.8789C178.844 73.8789 176.418 73.375 174.238 72.3672C172.082 71.3594 170.231 70 168.684 68.2891C167.16 66.5547 165.988 64.5391 165.168 62.2422C164.348 59.9453 163.938 57.5078 163.938 54.9297C163.938 52.3281 164.371 49.9023 165.238 47.6523C166.129 45.3789 167.371 43.4102 168.965 41.7461C170.559 40.0586 172.457 38.7344 174.66 37.7734C176.863 36.7891 179.289 36.2969 181.938 36.2969C184.539 36.2969 186.895 36.8008 189.004 37.8086C191.113 38.793 192.918 40.1406 194.418 41.8516C195.942 43.5391 197.113 45.5078 197.934 47.7578C198.754 50.0078 199.164 52.375 199.164 54.8594ZM193.117 55.2109C193.117 53.8984 193.047 52.5625 192.906 51.2031C192.789 49.8438 192.567 48.5312 192.238 47.2656C191.91 46 191.465 44.8164 190.902 43.7148C190.34 42.6133 189.625 41.6523 188.758 40.832C187.891 40.0117 186.848 39.3672 185.629 38.8984C184.434 38.4062 183.016 38.1602 181.375 38.1602C179.875 38.1602 178.551 38.4062 177.402 38.8984C176.277 39.3672 175.293 40.0117 174.449 40.832C173.606 41.6523 172.902 42.6133 172.34 43.7148C171.777 44.8164 171.32 45.9883 170.969 47.2305C170.641 48.4492 170.406 49.7148 170.266 51.0273C170.125 52.3164 170.055 53.5703 170.055 54.7891C170.055 55.9844 170.125 57.2383 170.266 58.5508C170.406 59.8633 170.652 61.1523 171.004 62.418C171.356 63.6836 171.813 64.8906 172.375 66.0391C172.938 67.1875 173.641 68.1953 174.485 69.0625C175.328 69.9297 176.324 70.6211 177.473 71.1367C178.621 71.6523 179.945 71.9102 181.445 71.9102C183.016 71.9102 184.387 71.6758 185.559 71.207C186.754 70.7383 187.785 70.1055 188.652 69.3086C189.52 68.4883 190.235 67.5391 190.797 66.4609C191.383 65.3594 191.84 64.1992 192.168 62.9805C192.52 61.7383 192.766 60.4609 192.906 59.1484C193.047 57.8125 193.117 56.5 193.117 55.2109ZM247.619 38.0195C246.494 38.0195 245.592 38.0898 244.912 38.2305C244.233 38.3711 243.705 38.6406 243.33 39.0391C242.979 39.4141 242.744 39.9414 242.627 40.6211C242.533 41.3008 242.487 42.1797 242.487 43.2578V73.5625H241.572L217.807 44.6289V66.7422C217.807 67.8672 217.854 68.7695 217.947 69.4492C218.065 70.1289 218.299 70.6562 218.651 71.0312C219.002 71.4062 219.518 71.6641 220.197 71.8047C220.877 71.9219 221.78 71.9805 222.905 71.9805V73H210.389V71.9805C211.514 71.9805 212.405 71.9102 213.061 71.7695C213.74 71.6289 214.256 71.3711 214.608 70.9961C214.959 70.5977 215.194 70.0586 215.311 69.3789C215.428 68.6992 215.487 67.8203 215.487 66.7422V41.7461C215.041 41.1367 214.619 40.6094 214.221 40.1641C213.846 39.6953 213.436 39.3086 212.99 39.0039C212.569 38.6758 212.076 38.4297 211.514 38.2656C210.951 38.1016 210.26 38.0195 209.44 38.0195V37.0703H218.229L240.201 64V43.2578C240.201 42.1797 240.143 41.3008 240.026 40.6211C239.908 39.9414 239.662 39.4141 239.287 39.0391C238.936 38.6406 238.42 38.3711 237.74 38.2305C237.084 38.0898 236.194 38.0195 235.069 38.0195V37.0703H247.619V38.0195ZM284.543 47.0195C284.543 48.9648 284.203 50.582 283.524 51.8711C282.867 53.1367 281.965 54.1445 280.817 54.8945C279.668 55.6445 278.321 56.1719 276.774 56.4766C275.25 56.7812 273.633 56.9336 271.922 56.9336C271.172 56.9336 270.422 56.9219 269.672 56.8984C268.946 56.875 268.16 56.793 267.317 56.6523V66.6719C267.317 67.7734 267.375 68.6758 267.492 69.3789C267.633 70.0586 267.879 70.5977 268.231 70.9961C268.606 71.3711 269.133 71.6289 269.813 71.7695C270.492 71.9102 271.395 71.9805 272.52 71.9805V73H257.192V71.9805C258.317 71.9805 259.207 71.9102 259.864 71.7695C260.543 71.6289 261.059 71.3711 261.41 70.9961C261.762 70.5977 261.985 70.0586 262.078 69.3789C262.172 68.6758 262.219 67.7734 262.219 66.6719V43.3984C262.219 42.2734 262.172 41.3711 262.078 40.6914C261.985 39.9883 261.762 39.4375 261.41 39.0391C261.082 38.6406 260.578 38.3711 259.899 38.2305C259.242 38.0898 258.34 38.0195 257.192 38.0195V37.0703H270.27C271.887 37.0703 273.539 37.2109 275.227 37.4922C276.938 37.7734 278.473 38.2891 279.832 39.0391C281.215 39.7656 282.34 40.7734 283.207 42.0625C284.098 43.3516 284.543 45.0039 284.543 47.0195ZM278.496 47.5117C278.496 46.3633 278.321 45.2852 277.969 44.2773C277.641 43.2461 277.149 42.3555 276.492 41.6055C275.86 40.8555 275.063 40.2578 274.102 39.8125C273.164 39.3672 272.086 39.1445 270.867 39.1445C270.282 39.1445 269.684 39.2031 269.075 39.3203C268.489 39.4375 267.903 39.5547 267.317 39.6719V54.8594C268.043 54.9766 268.77 55.0703 269.496 55.1406C270.223 55.1875 270.961 55.2109 271.711 55.2109C272.766 55.2109 273.703 55 274.524 54.5781C275.367 54.1328 276.082 53.5586 276.668 52.8555C277.254 52.1289 277.7 51.3086 278.004 50.3945C278.332 49.457 278.496 48.4961 278.496 47.5117ZM323.26 73H295.346V71.9805C296.19 71.9805 296.94 71.9336 297.596 71.8398C298.252 71.7227 298.791 71.5117 299.213 71.207C299.659 70.8789 299.998 70.4219 300.233 69.8359C300.467 69.25 300.584 68.4766 300.584 67.5156V42.5547C300.584 41.6172 300.467 40.8555 300.233 40.2695C299.998 39.6836 299.659 39.2383 299.213 38.9336C298.791 38.6055 298.252 38.3828 297.596 38.2656C296.94 38.1484 296.19 38.0898 295.346 38.0898V37.0703H310.955V38.0898C310.088 38.0898 309.327 38.1484 308.67 38.2656C308.014 38.3828 307.463 38.6055 307.018 38.9336C306.573 39.2383 306.233 39.6836 305.998 40.2695C305.764 40.8555 305.647 41.6172 305.647 42.5547V66.2148C305.647 67.1055 305.717 67.8438 305.858 68.4297C305.998 68.9922 306.233 69.4492 306.561 69.8008C306.913 70.1289 307.381 70.3633 307.967 70.5039C308.553 70.6211 309.291 70.6797 310.182 70.6797H313.768C315.502 70.6797 316.955 70.5859 318.127 70.3984C319.299 70.1875 320.307 69.8125 321.151 69.2734C322.018 68.7109 322.78 67.9375 323.436 66.9531C324.092 65.9453 324.76 64.6445 325.44 63.0508L326.354 63.1914L323.26 73ZM372.454 54.8594C372.454 57.4141 372.032 59.8398 371.188 62.1367C370.344 64.4336 369.149 66.4609 367.602 68.2188C366.079 69.9531 364.227 71.3359 362.047 72.3672C359.891 73.375 357.477 73.8789 354.805 73.8789C352.133 73.8789 349.708 73.375 347.528 72.3672C345.372 71.3594 343.52 70 341.973 68.2891C340.45 66.5547 339.278 64.5391 338.458 62.2422C337.637 59.9453 337.227 57.5078 337.227 54.9297C337.227 52.3281 337.661 49.9023 338.528 47.6523C339.418 45.3789 340.661 43.4102 342.254 41.7461C343.848 40.0586 345.747 38.7344 347.95 37.7734C350.153 36.7891 352.579 36.2969 355.227 36.2969C357.829 36.2969 360.184 36.8008 362.293 37.8086C364.403 38.793 366.208 40.1406 367.708 41.8516C369.231 43.5391 370.403 45.5078 371.223 47.7578C372.043 50.0078 372.454 52.375 372.454 54.8594ZM366.407 55.2109C366.407 53.8984 366.336 52.5625 366.196 51.2031C366.079 49.8438 365.856 48.5312 365.528 47.2656C365.2 46 364.754 44.8164 364.192 43.7148C363.629 42.6133 362.915 41.6523 362.047 40.832C361.18 40.0117 360.137 39.3672 358.918 38.8984C357.723 38.4062 356.305 38.1602 354.665 38.1602C353.165 38.1602 351.84 38.4062 350.692 38.8984C349.567 39.3672 348.583 40.0117 347.739 40.832C346.895 41.6523 346.192 42.6133 345.629 43.7148C345.067 44.8164 344.61 45.9883 344.258 47.2305C343.93 48.4492 343.696 49.7148 343.555 51.0273C343.415 52.3164 343.344 53.5703 343.344 54.7891C343.344 55.9844 343.415 57.2383 343.555 58.5508C343.696 59.8633 343.942 61.1523 344.293 62.418C344.645 63.6836 345.102 64.8906 345.665 66.0391C346.227 67.1875 346.93 68.1953 347.774 69.0625C348.618 69.9297 349.614 70.6211 350.762 71.1367C351.911 71.6523 353.235 71.9102 354.735 71.9102C356.305 71.9102 357.676 71.6758 358.848 71.207C360.043 70.7383 361.075 70.1055 361.942 69.3086C362.809 68.4883 363.524 67.5391 364.086 66.4609C364.672 65.3594 365.129 64.1992 365.458 62.9805C365.809 61.7383 366.055 60.4609 366.196 59.1484C366.336 57.8125 366.407 56.5 366.407 55.2109ZM413.104 45.5078C412.893 43.4688 412.272 41.9336 411.241 40.9023C410.21 39.8477 408.628 39.3203 406.495 39.3203H401.467V66.7422C401.467 67.8438 401.514 68.7344 401.608 69.4141C401.702 70.0938 401.924 70.6328 402.276 71.0312C402.628 71.4062 403.131 71.6641 403.788 71.8047C404.467 71.9219 405.37 71.9805 406.495 71.9805V73H391.307V71.9805C392.432 71.9805 393.323 71.9102 393.979 71.7695C394.635 71.6289 395.139 71.3711 395.491 70.9961C395.842 70.5977 396.065 70.0586 396.159 69.3789C396.276 68.6992 396.335 67.8203 396.335 66.7422V39.3203H392.01C390.885 39.3203 389.901 39.4258 389.057 39.6367C388.213 39.8242 387.499 40.1523 386.913 40.6211C386.35 41.0898 385.905 41.7227 385.577 42.5195C385.272 43.3164 385.073 44.3125 384.979 45.5078H383.749L384.1 37.0703H413.913L414.264 45.5078H413.104Z" fill="#E9CF8C"/>
<path d="M108.934 73H81.0195V71.9805C81.8633 71.9805 82.6133 71.9336 83.2695 71.8398C83.9258 71.7227 84.4648 71.5117 84.8867 71.207C85.332 70.8789 85.6719 70.4219 85.9062 69.8359C86.1406 69.25 86.2578 68.4766 86.2578 67.5156V42.5547C86.2578 41.6172 86.1406 40.8555 85.9062 40.2695C85.6719 39.6836 85.332 39.2383 84.8867 38.9336C84.4648 38.6055 83.9258 38.3828 83.2695 38.2656C82.6133 38.1484 81.8633 38.0898 81.0195 38.0898V37.0703H96.6289V38.0898C95.7617 38.0898 95 38.1484 94.3438 38.2656C93.6875 38.3828 93.1367 38.6055 92.6914 38.9336C92.2461 39.2383 91.9062 39.6836 91.6719 40.2695C91.4375 40.8555 91.3203 41.6172 91.3203 42.5547V66.2148C91.3203 67.1055 91.3906 67.8438 91.5312 68.4297C91.6719 68.9922 91.9062 69.4492 92.2344 69.8008C92.5859 70.1289 93.0547 70.3633 93.6406 70.5039C94.2266 70.6211 94.9648 70.6797 95.8555 70.6797H99.4414C101.176 70.6797 102.629 70.5859 103.801 70.3984C104.973 70.1875 105.98 69.8125 106.824 69.2734C107.691 68.7109 108.453 67.9375 109.109 66.9531C109.766 65.9453 110.434 64.6445 111.113 63.0508L112.027 63.1914L108.934 73ZM149.83 73H122.197V71.9805C123.322 71.9805 124.213 71.9102 124.869 71.7695C125.549 71.6289 126.065 71.3711 126.416 70.9961C126.768 70.5977 127.002 70.0586 127.119 69.3789C127.236 68.6758 127.295 67.7734 127.295 66.6719V43.2578C127.295 42.1328 127.248 41.2305 127.154 40.5508C127.061 39.8711 126.838 39.3438 126.486 38.9688C126.135 38.5938 125.619 38.3477 124.94 38.2305C124.26 38.0898 123.346 38.0195 122.197 38.0195V37.0703H149.83L150.252 44.9102H149.268C148.963 43.7617 148.67 42.8125 148.389 42.0625C148.131 41.2891 147.768 40.6797 147.299 40.2344C146.854 39.7891 146.232 39.4727 145.436 39.2852C144.662 39.0977 143.607 39.0039 142.272 39.0039H132.357V53.207H140.268C141.369 53.207 142.248 53.1367 142.904 52.9961C143.584 52.832 144.123 52.5625 144.522 52.1875C144.943 51.7891 145.248 51.2617 145.436 50.6055C145.647 49.9258 145.822 49.0586 145.963 48.0039H146.947V60.5547H145.963C145.822 59.5 145.647 58.6328 145.436 57.9531C145.248 57.2734 144.955 56.7344 144.557 56.3359C144.158 55.9141 143.619 55.6211 142.94 55.457C142.283 55.293 141.393 55.2109 140.268 55.2109H132.357V67.0234C132.357 67.6797 132.369 68.2656 132.393 68.7812C132.44 69.2734 132.557 69.6953 132.744 70.0469C132.932 70.375 133.225 70.6328 133.623 70.8203C134.045 70.9844 134.631 71.0664 135.381 71.0664H141.428C142.998 71.0664 144.287 70.9375 145.295 70.6797C146.303 70.4219 147.17 70.0117 147.897 69.4492C148.647 68.8867 149.315 68.1602 149.9 67.2695C150.486 66.3555 151.143 65.2656 151.869 64H152.994L149.83 73ZM199.164 54.8594C199.164 57.4141 198.742 59.8398 197.899 62.1367C197.055 64.4336 195.86 66.4609 194.313 68.2188C192.789 69.9531 190.938 71.3359 188.758 72.3672C186.602 73.375 184.188 73.8789 181.516 73.8789C178.844 73.8789 176.418 73.375 174.238 72.3672C172.082 71.3594 170.231 70 168.684 68.2891C167.16 66.5547 165.988 64.5391 165.168 62.2422C164.348 59.9453 163.938 57.5078 163.938 54.9297C163.938 52.3281 164.371 49.9023 165.238 47.6523C166.129 45.3789 167.371 43.4102 168.965 41.7461C170.559 40.0586 172.457 38.7344 174.66 37.7734C176.863 36.7891 179.289 36.2969 181.938 36.2969C184.539 36.2969 186.895 36.8008 189.004 37.8086C191.113 38.793 192.918 40.1406 194.418 41.8516C195.942 43.5391 197.113 45.5078 197.934 47.7578C198.754 50.0078 199.164 52.375 199.164 54.8594ZM193.117 55.2109C193.117 53.8984 193.047 52.5625 192.906 51.2031C192.789 49.8438 192.567 48.5312 192.238 47.2656C191.91 46 191.465 44.8164 190.902 43.7148C190.34 42.6133 189.625 41.6523 188.758 40.832C187.891 40.0117 186.848 39.3672 185.629 38.8984C184.434 38.4062 183.016 38.1602 181.375 38.1602C179.875 38.1602 178.551 38.4062 177.402 38.8984C176.277 39.3672 175.293 40.0117 174.449 40.832C173.606 41.6523 172.902 42.6133 172.34 43.7148C171.777 44.8164 171.32 45.9883 170.969 47.2305C170.641 48.4492 170.406 49.7148 170.266 51.0273C170.125 52.3164 170.055 53.5703 170.055 54.7891C170.055 55.9844 170.125 57.2383 170.266 58.5508C170.406 59.8633 170.652 61.1523 171.004 62.418C171.356 63.6836 171.813 64.8906 172.375 66.0391C172.938 67.1875 173.641 68.1953 174.485 69.0625C175.328 69.9297 176.324 70.6211 177.473 71.1367C178.621 71.6523 179.945 71.9102 181.445 71.9102C183.016 71.9102 184.387 71.6758 185.559 71.207C186.754 70.7383 187.785 70.1055 188.652 69.3086C189.52 68.4883 190.235 67.5391 190.797 66.4609C191.383 65.3594 191.84 64.1992 192.168 62.9805C192.52 61.7383 192.766 60.4609 192.906 59.1484C193.047 57.8125 193.117 56.5 193.117 55.2109ZM247.619 38.0195C246.494 38.0195 245.592 38.0898 244.912 38.2305C244.233 38.3711 243.705 38.6406 243.33 39.0391C242.979 39.4141 242.744 39.9414 242.627 40.6211C242.533 41.3008 242.487 42.1797 242.487 43.2578V73.5625H241.572L217.807 44.6289V66.7422C217.807 67.8672 217.854 68.7695 217.947 69.4492C218.065 70.1289 218.299 70.6562 218.651 71.0312C219.002 71.4062 219.518 71.6641 220.197 71.8047C220.877 71.9219 221.78 71.9805 222.905 71.9805V73H210.389V71.9805C211.514 71.9805 212.405 71.9102 213.061 71.7695C213.74 71.6289 214.256 71.3711 214.608 70.9961C214.959 70.5977 215.194 70.0586 215.311 69.3789C215.428 68.6992 215.487 67.8203 215.487 66.7422V41.7461C215.041 41.1367 214.619 40.6094 214.221 40.1641C213.846 39.6953 213.436 39.3086 212.99 39.0039C212.569 38.6758 212.076 38.4297 211.514 38.2656C210.951 38.1016 210.26 38.0195 209.44 38.0195V37.0703H218.229L240.201 64V43.2578C240.201 42.1797 240.143 41.3008 240.026 40.6211C239.908 39.9414 239.662 39.4141 239.287 39.0391C238.936 38.6406 238.42 38.3711 237.74 38.2305C237.084 38.0898 236.194 38.0195 235.069 38.0195V37.0703H247.619V38.0195ZM284.543 47.0195C284.543 48.9648 284.203 50.582 283.524 51.8711C282.867 53.1367 281.965 54.1445 280.817 54.8945C279.668 55.6445 278.321 56.1719 276.774 56.4766C275.25 56.7812 273.633 56.9336 271.922 56.9336C271.172 56.9336 270.422 56.9219 269.672 56.8984C268.946 56.875 268.16 56.793 267.317 56.6523V66.6719C267.317 67.7734 267.375 68.6758 267.492 69.3789C267.633 70.0586 267.879 70.5977 268.231 70.9961C268.606 71.3711 269.133 71.6289 269.813 71.7695C270.492 71.9102 271.395 71.9805 272.52 71.9805V73H257.192V71.9805C258.317 71.9805 259.207 71.9102 259.864 71.7695C260.543 71.6289 261.059 71.3711 261.41 70.9961C261.762 70.5977 261.985 70.0586 262.078 69.3789C262.172 68.6758 262.219 67.7734 262.219 66.6719V43.3984C262.219 42.2734 262.172 41.3711 262.078 40.6914C261.985 39.9883 261.762 39.4375 261.41 39.0391C261.082 38.6406 260.578 38.3711 259.899 38.2305C259.242 38.0898 258.34 38.0195 257.192 38.0195V37.0703H270.27C271.887 37.0703 273.539 37.2109 275.227 37.4922C276.938 37.7734 278.473 38.2891 279.832 39.0391C281.215 39.7656 282.34 40.7734 283.207 42.0625C284.098 43.3516 284.543 45.0039 284.543 47.0195ZM278.496 47.5117C278.496 46.3633 278.321 45.2852 277.969 44.2773C277.641 43.2461 277.149 42.3555 276.492 41.6055C275.86 40.8555 275.063 40.2578 274.102 39.8125C273.164 39.3672 272.086 39.1445 270.867 39.1445C270.282 39.1445 269.684 39.2031 269.075 39.3203C268.489 39.4375 267.903 39.5547 267.317 39.6719V54.8594C268.043 54.9766 268.77 55.0703 269.496 55.1406C270.223 55.1875 270.961 55.2109 271.711 55.2109C272.766 55.2109 273.703 55 274.524 54.5781C275.367 54.1328 276.082 53.5586 276.668 52.8555C277.254 52.1289 277.7 51.3086 278.004 50.3945C278.332 49.457 278.496 48.4961 278.496 47.5117ZM323.26 73H295.346V71.9805C296.19 71.9805 296.94 71.9336 297.596 71.8398C298.252 71.7227 298.791 71.5117 299.213 71.207C299.659 70.8789 299.998 70.4219 300.233 69.8359C300.467 69.25 300.584 68.4766 300.584 67.5156V42.5547C300.584 41.6172 300.467 40.8555 300.233 40.2695C299.998 39.6836 299.659 39.2383 299.213 38.9336C298.791 38.6055 298.252 38.3828 297.596 38.2656C296.94 38.1484 296.19 38.0898 295.346 38.0898V37.0703H310.955V38.0898C310.088 38.0898 309.327 38.1484 308.67 38.2656C308.014 38.3828 307.463 38.6055 307.018 38.9336C306.573 39.2383 306.233 39.6836 305.998 40.2695C305.764 40.8555 305.647 41.6172 305.647 42.5547V66.2148C305.647 67.1055 305.717 67.8438 305.858 68.4297C305.998 68.9922 306.233 69.4492 306.561 69.8008C306.913 70.1289 307.381 70.3633 307.967 70.5039C308.553 70.6211 309.291 70.6797 310.182 70.6797H313.768C315.502 70.6797 316.955 70.5859 318.127 70.3984C319.299 70.1875 320.307 69.8125 321.151 69.2734C322.018 68.7109 322.78 67.9375 323.436 66.9531C324.092 65.9453 324.76 64.6445 325.44 63.0508L326.354 63.1914L323.26 73ZM372.454 54.8594C372.454 57.4141 372.032 59.8398 371.188 62.1367C370.344 64.4336 369.149 66.4609 367.602 68.2188C366.079 69.9531 364.227 71.3359 362.047 72.3672C359.891 73.375 357.477 73.8789 354.805 73.8789C352.133 73.8789 349.708 73.375 347.528 72.3672C345.372 71.3594 343.52 70 341.973 68.2891C340.45 66.5547 339.278 64.5391 338.458 62.2422C337.637 59.9453 337.227 57.5078 337.227 54.9297C337.227 52.3281 337.661 49.9023 338.528 47.6523C339.418 45.3789 340.661 43.4102 342.254 41.7461C343.848 40.0586 345.747 38.7344 347.95 37.7734C350.153 36.7891 352.579 36.2969 355.227 36.2969C357.829 36.2969 360.184 36.8008 362.293 37.8086C364.403 38.793 366.208 40.1406 367.708 41.8516C369.231 43.5391 370.403 45.5078 371.223 47.7578C372.043 50.0078 372.454 52.375 372.454 54.8594ZM366.407 55.2109C366.407 53.8984 366.336 52.5625 366.196 51.2031C366.079 49.8438 365.856 48.5312 365.528 47.2656C365.2 46 364.754 44.8164 364.192 43.7148C363.629 42.6133 362.915 41.6523 362.047 40.832C361.18 40.0117 360.137 39.3672 358.918 38.8984C357.723 38.4062 356.305 38.1602 354.665 38.1602C353.165 38.1602 351.84 38.4062 350.692 38.8984C349.567 39.3672 348.583 40.0117 347.739 40.832C346.895 41.6523 346.192 42.6133 345.629 43.7148C345.067 44.8164 344.61 45.9883 344.258 47.2305C343.93 48.4492 343.696 49.7148 343.555 51.0273C343.415 52.3164 343.344 53.5703 343.344 54.7891C343.344 55.9844 343.415 57.2383 343.555 58.5508C343.696 59.8633 343.942 61.1523 344.293 62.418C344.645 63.6836 345.102 64.8906 345.665 66.0391C346.227 67.1875 346.93 68.1953 347.774 69.0625C348.618 69.9297 349.614 70.6211 350.762 71.1367C351.911 71.6523 353.235 71.9102 354.735 71.9102C356.305 71.9102 357.676 71.6758 358.848 71.207C360.043 70.7383 361.075 70.1055 361.942 69.3086C362.809 68.4883 363.524 67.5391 364.086 66.4609C364.672 65.3594 365.129 64.1992 365.458 62.9805C365.809 61.7383 366.055 60.4609 366.196 59.1484C366.336 57.8125 366.407 56.5 366.407 55.2109ZM413.104 45.5078C412.893 43.4688 412.272 41.9336 411.241 40.9023C410.21 39.8477 408.628 39.3203 406.495 39.3203H401.467V66.7422C401.467 67.8438 401.514 68.7344 401.608 69.4141C401.702 70.0938 401.924 70.6328 402.276 71.0312C402.628 71.4062 403.131 71.6641 403.788 71.8047C404.467 71.9219 405.37 71.9805 406.495 71.9805V73H391.307V71.9805C392.432 71.9805 393.323 71.9102 393.979 71.7695C394.635 71.6289 395.139 71.3711 395.491 70.9961C395.842 70.5977 396.065 70.0586 396.159 69.3789C396.276 68.6992 396.335 67.8203 396.335 66.7422V39.3203H392.01C390.885 39.3203 389.901 39.4258 389.057 39.6367C388.213 39.8242 387.499 40.1523 386.913 40.6211C386.35 41.0898 385.905 41.7227 385.577 42.5195C385.272 43.3164 385.073 44.3125 384.979 45.5078H383.749L384.1 37.0703H413.913L414.264 45.5078H413.104Z" fill="url(#paint2_linear_146_20)" fill-opacity="0.69"/>
<path d="M108.934 73H81.0195V71.9805C81.8633 71.9805 82.6133 71.9336 83.2695 71.8398C83.9258 71.7227 84.4648 71.5117 84.8867 71.207C85.332 70.8789 85.6719 70.4219 85.9062 69.8359C86.1406 69.25 86.2578 68.4766 86.2578 67.5156V42.5547C86.2578 41.6172 86.1406 40.8555 85.9062 40.2695C85.6719 39.6836 85.332 39.2383 84.8867 38.9336C84.4648 38.6055 83.9258 38.3828 83.2695 38.2656C82.6133 38.1484 81.8633 38.0898 81.0195 38.0898V37.0703H96.6289V38.0898C95.7617 38.0898 95 38.1484 94.3438 38.2656C93.6875 38.3828 93.1367 38.6055 92.6914 38.9336C92.2461 39.2383 91.9062 39.6836 91.6719 40.2695C91.4375 40.8555 91.3203 41.6172 91.3203 42.5547V66.2148C91.3203 67.1055 91.3906 67.8438 91.5312 68.4297C91.6719 68.9922 91.9062 69.4492 92.2344 69.8008C92.5859 70.1289 93.0547 70.3633 93.6406 70.5039C94.2266 70.6211 94.9648 70.6797 95.8555 70.6797H99.4414C101.176 70.6797 102.629 70.5859 103.801 70.3984C104.973 70.1875 105.98 69.8125 106.824 69.2734C107.691 68.7109 108.453 67.9375 109.109 66.9531C109.766 65.9453 110.434 64.6445 111.113 63.0508L112.027 63.1914L108.934 73ZM149.83 73H122.197V71.9805C123.322 71.9805 124.213 71.9102 124.869 71.7695C125.549 71.6289 126.065 71.3711 126.416 70.9961C126.768 70.5977 127.002 70.0586 127.119 69.3789C127.236 68.6758 127.295 67.7734 127.295 66.6719V43.2578C127.295 42.1328 127.248 41.2305 127.154 40.5508C127.061 39.8711 126.838 39.3438 126.486 38.9688C126.135 38.5938 125.619 38.3477 124.94 38.2305C124.26 38.0898 123.346 38.0195 122.197 38.0195V37.0703H149.83L150.252 44.9102H149.268C148.963 43.7617 148.67 42.8125 148.389 42.0625C148.131 41.2891 147.768 40.6797 147.299 40.2344C146.854 39.7891 146.232 39.4727 145.436 39.2852C144.662 39.0977 143.607 39.0039 142.272 39.0039H132.357V53.207H140.268C141.369 53.207 142.248 53.1367 142.904 52.9961C143.584 52.832 144.123 52.5625 144.522 52.1875C144.943 51.7891 145.248 51.2617 145.436 50.6055C145.647 49.9258 145.822 49.0586 145.963 48.0039H146.947V60.5547H145.963C145.822 59.5 145.647 58.6328 145.436 57.9531C145.248 57.2734 144.955 56.7344 144.557 56.3359C144.158 55.9141 143.619 55.6211 142.94 55.457C142.283 55.293 141.393 55.2109 140.268 55.2109H132.357V67.0234C132.357 67.6797 132.369 68.2656 132.393 68.7812C132.44 69.2734 132.557 69.6953 132.744 70.0469C132.932 70.375 133.225 70.6328 133.623 70.8203C134.045 70.9844 134.631 71.0664 135.381 71.0664H141.428C142.998 71.0664 144.287 70.9375 145.295 70.6797C146.303 70.4219 147.17 70.0117 147.897 69.4492C148.647 68.8867 149.315 68.1602 149.9 67.2695C150.486 66.3555 151.143 65.2656 151.869 64H152.994L149.83 73ZM199.164 54.8594C199.164 57.4141 198.742 59.8398 197.899 62.1367C197.055 64.4336 195.86 66.4609 194.313 68.2188C192.789 69.9531 190.938 71.3359 188.758 72.3672C186.602 73.375 184.188 73.8789 181.516 73.8789C178.844 73.8789 176.418 73.375 174.238 72.3672C172.082 71.3594 170.231 70 168.684 68.2891C167.16 66.5547 165.988 64.5391 165.168 62.2422C164.348 59.9453 163.938 57.5078 163.938 54.9297C163.938 52.3281 164.371 49.9023 165.238 47.6523C166.129 45.3789 167.371 43.4102 168.965 41.7461C170.559 40.0586 172.457 38.7344 174.66 37.7734C176.863 36.7891 179.289 36.2969 181.938 36.2969C184.539 36.2969 186.895 36.8008 189.004 37.8086C191.113 38.793 192.918 40.1406 194.418 41.8516C195.942 43.5391 197.113 45.5078 197.934 47.7578C198.754 50.0078 199.164 52.375 199.164 54.8594ZM193.117 55.2109C193.117 53.8984 193.047 52.5625 192.906 51.2031C192.789 49.8438 192.567 48.5312 192.238 47.2656C191.91 46 191.465 44.8164 190.902 43.7148C190.34 42.6133 189.625 41.6523 188.758 40.832C187.891 40.0117 186.848 39.3672 185.629 38.8984C184.434 38.4062 183.016 38.1602 181.375 38.1602C179.875 38.1602 178.551 38.4062 177.402 38.8984C176.277 39.3672 175.293 40.0117 174.449 40.832C173.606 41.6523 172.902 42.6133 172.34 43.7148C171.777 44.8164 171.32 45.9883 170.969 47.2305C170.641 48.4492 170.406 49.7148 170.266 51.0273C170.125 52.3164 170.055 53.5703 170.055 54.7891C170.055 55.9844 170.125 57.2383 170.266 58.5508C170.406 59.8633 170.652 61.1523 171.004 62.418C171.356 63.6836 171.813 64.8906 172.375 66.0391C172.938 67.1875 173.641 68.1953 174.485 69.0625C175.328 69.9297 176.324 70.6211 177.473 71.1367C178.621 71.6523 179.945 71.9102 181.445 71.9102C183.016 71.9102 184.387 71.6758 185.559 71.207C186.754 70.7383 187.785 70.1055 188.652 69.3086C189.52 68.4883 190.235 67.5391 190.797 66.4609C191.383 65.3594 191.84 64.1992 192.168 62.9805C192.52 61.7383 192.766 60.4609 192.906 59.1484C193.047 57.8125 193.117 56.5 193.117 55.2109ZM247.619 38.0195C246.494 38.0195 245.592 38.0898 244.912 38.2305C244.233 38.3711 243.705 38.6406 243.33 39.0391C242.979 39.4141 242.744 39.9414 242.627 40.6211C242.533 41.3008 242.487 42.1797 242.487 43.2578V73.5625H241.572L217.807 44.6289V66.7422C217.807 67.8672 217.854 68.7695 217.947 69.4492C218.065 70.1289 218.299 70.6562 218.651 71.0312C219.002 71.4062 219.518 71.6641 220.197 71.8047C220.877 71.9219 221.78 71.9805 222.905 71.9805V73H210.389V71.9805C211.514 71.9805 212.405 71.9102 213.061 71.7695C213.74 71.6289 214.256 71.3711 214.608 70.9961C214.959 70.5977 215.194 70.0586 215.311 69.3789C215.428 68.6992 215.487 67.8203 215.487 66.7422V41.7461C215.041 41.1367 214.619 40.6094 214.221 40.1641C213.846 39.6953 213.436 39.3086 212.99 39.0039C212.569 38.6758 212.076 38.4297 211.514 38.2656C210.951 38.1016 210.26 38.0195 209.44 38.0195V37.0703H218.229L240.201 64V43.2578C240.201 42.1797 240.143 41.3008 240.026 40.6211C239.908 39.9414 239.662 39.4141 239.287 39.0391C238.936 38.6406 238.42 38.3711 237.74 38.2305C237.084 38.0898 236.194 38.0195 235.069 38.0195V37.0703H247.619V38.0195ZM284.543 47.0195C284.543 48.9648 284.203 50.582 283.524 51.8711C282.867 53.1367 281.965 54.1445 280.817 54.8945C279.668 55.6445 278.321 56.1719 276.774 56.4766C275.25 56.7812 273.633 56.9336 271.922 56.9336C271.172 56.9336 270.422 56.9219 269.672 56.8984C268.946 56.875 268.16 56.793 267.317 56.6523V66.6719C267.317 67.7734 267.375 68.6758 267.492 69.3789C267.633 70.0586 267.879 70.5977 268.231 70.9961C268.606 71.3711 269.133 71.6289 269.813 71.7695C270.492 71.9102 271.395 71.9805 272.52 71.9805V73H257.192V71.9805C258.317 71.9805 259.207 71.9102 259.864 71.7695C260.543 71.6289 261.059 71.3711 261.41 70.9961C261.762 70.5977 261.985 70.0586 262.078 69.3789C262.172 68.6758 262.219 67.7734 262.219 66.6719V43.3984C262.219 42.2734 262.172 41.3711 262.078 40.6914C261.985 39.9883 261.762 39.4375 261.41 39.0391C261.082 38.6406 260.578 38.3711 259.899 38.2305C259.242 38.0898 258.34 38.0195 257.192 38.0195V37.0703H270.27C271.887 37.0703 273.539 37.2109 275.227 37.4922C276.938 37.7734 278.473 38.2891 279.832 39.0391C281.215 39.7656 282.34 40.7734 283.207 42.0625C284.098 43.3516 284.543 45.0039 284.543 47.0195ZM278.496 47.5117C278.496 46.3633 278.321 45.2852 277.969 44.2773C277.641 43.2461 277.149 42.3555 276.492 41.6055C275.86 40.8555 275.063 40.2578 274.102 39.8125C273.164 39.3672 272.086 39.1445 270.867 39.1445C270.282 39.1445 269.684 39.2031 269.075 39.3203C268.489 39.4375 267.903 39.5547 267.317 39.6719V54.8594C268.043 54.9766 268.77 55.0703 269.496 55.1406C270.223 55.1875 270.961 55.2109 271.711 55.2109C272.766 55.2109 273.703 55 274.524 54.5781C275.367 54.1328 276.082 53.5586 276.668 52.8555C277.254 52.1289 277.7 51.3086 278.004 50.3945C278.332 49.457 278.496 48.4961 278.496 47.5117ZM323.26 73H295.346V71.9805C296.19 71.9805 296.94 71.9336 297.596 71.8398C298.252 71.7227 298.791 71.5117 299.213 71.207C299.659 70.8789 299.998 70.4219 300.233 69.8359C300.467 69.25 300.584 68.4766 300.584 67.5156V42.5547C300.584 41.6172 300.467 40.8555 300.233 40.2695C299.998 39.6836 299.659 39.2383 299.213 38.9336C298.791 38.6055 298.252 38.3828 297.596 38.2656C296.94 38.1484 296.19 38.0898 295.346 38.0898V37.0703H310.955V38.0898C310.088 38.0898 309.327 38.1484 308.67 38.2656C308.014 38.3828 307.463 38.6055 307.018 38.9336C306.573 39.2383 306.233 39.6836 305.998 40.2695C305.764 40.8555 305.647 41.6172 305.647 42.5547V66.2148C305.647 67.1055 305.717 67.8438 305.858 68.4297C305.998 68.9922 306.233 69.4492 306.561 69.8008C306.913 70.1289 307.381 70.3633 307.967 70.5039C308.553 70.6211 309.291 70.6797 310.182 70.6797H313.768C315.502 70.6797 316.955 70.5859 318.127 70.3984C319.299 70.1875 320.307 69.8125 321.151 69.2734C322.018 68.7109 322.78 67.9375 323.436 66.9531C324.092 65.9453 324.76 64.6445 325.44 63.0508L326.354 63.1914L323.26 73ZM372.454 54.8594C372.454 57.4141 372.032 59.8398 371.188 62.1367C370.344 64.4336 369.149 66.4609 367.602 68.2188C366.079 69.9531 364.227 71.3359 362.047 72.3672C359.891 73.375 357.477 73.8789 354.805 73.8789C352.133 73.8789 349.708 73.375 347.528 72.3672C345.372 71.3594 343.52 70 341.973 68.2891C340.45 66.5547 339.278 64.5391 338.458 62.2422C337.637 59.9453 337.227 57.5078 337.227 54.9297C337.227 52.3281 337.661 49.9023 338.528 47.6523C339.418 45.3789 340.661 43.4102 342.254 41.7461C343.848 40.0586 345.747 38.7344 347.95 37.7734C350.153 36.7891 352.579 36.2969 355.227 36.2969C357.829 36.2969 360.184 36.8008 362.293 37.8086C364.403 38.793 366.208 40.1406 367.708 41.8516C369.231 43.5391 370.403 45.5078 371.223 47.7578C372.043 50.0078 372.454 52.375 372.454 54.8594ZM366.407 55.2109C366.407 53.8984 366.336 52.5625 366.196 51.2031C366.079 49.8438 365.856 48.5312 365.528 47.2656C365.2 46 364.754 44.8164 364.192 43.7148C363.629 42.6133 362.915 41.6523 362.047 40.832C361.18 40.0117 360.137 39.3672 358.918 38.8984C357.723 38.4062 356.305 38.1602 354.665 38.1602C353.165 38.1602 351.84 38.4062 350.692 38.8984C349.567 39.3672 348.583 40.0117 347.739 40.832C346.895 41.6523 346.192 42.6133 345.629 43.7148C345.067 44.8164 344.61 45.9883 344.258 47.2305C343.93 48.4492 343.696 49.7148 343.555 51.0273C343.415 52.3164 343.344 53.5703 343.344 54.7891C343.344 55.9844 343.415 57.2383 343.555 58.5508C343.696 59.8633 343.942 61.1523 344.293 62.418C344.645 63.6836 345.102 64.8906 345.665 66.0391C346.227 67.1875 346.93 68.1953 347.774 69.0625C348.618 69.9297 349.614 70.6211 350.762 71.1367C351.911 71.6523 353.235 71.9102 354.735 71.9102C356.305 71.9102 357.676 71.6758 358.848 71.207C360.043 70.7383 361.075 70.1055 361.942 69.3086C362.809 68.4883 363.524 67.5391 364.086 66.4609C364.672 65.3594 365.129 64.1992 365.458 62.9805C365.809 61.7383 366.055 60.4609 366.196 59.1484C366.336 57.8125 366.407 56.5 366.407 55.2109ZM413.104 45.5078C412.893 43.4688 412.272 41.9336 411.241 40.9023C410.21 39.8477 408.628 39.3203 406.495 39.3203H401.467V66.7422C401.467 67.8438 401.514 68.7344 401.608 69.4141C401.702 70.0938 401.924 70.6328 402.276 71.0312C402.628 71.4062 403.131 71.6641 403.788 71.8047C404.467 71.9219 405.37 71.9805 406.495 71.9805V73H391.307V71.9805C392.432 71.9805 393.323 71.9102 393.979 71.7695C394.635 71.6289 395.139 71.3711 395.491 70.9961C395.842 70.5977 396.065 70.0586 396.159 69.3789C396.276 68.6992 396.335 67.8203 396.335 66.7422V39.3203H392.01C390.885 39.3203 389.901 39.4258 389.057 39.6367C388.213 39.8242 387.499 40.1523 386.913 40.6211C386.35 41.0898 385.905 41.7227 385.577 42.5195C385.272 43.3164 385.073 44.3125 384.979 45.5078H383.749L384.1 37.0703H413.913L414.264 45.5078H413.104Z" fill="black" fill-opacity="0.2"/>
<defs>
<linearGradient id="paint0_linear_146_20" x1="-4.99766e-07" y1="51.1076" x2="31.0294" y2="51.1076" gradientUnits="userSpaceOnUse">
<stop stop-color="#F9F295" stop-opacity="0.46"/>
<stop offset="0.333333" stop-color="#E0AA3E" stop-opacity="0.46"/>
<stop offset="0.66" stop-color="#F3C264"/>
<stop offset="1" stop-color="#EFC531" stop-opacity="0.32"/>
</linearGradient>
<linearGradient id="paint1_linear_146_20" x1="27.5113" y1="57.9551" x2="61.2701" y2="57.9551" gradientUnits="userSpaceOnUse">
<stop stop-color="#F9F295" stop-opacity="0.46"/>
<stop offset="0.333333" stop-color="#E0AA3E" stop-opacity="0.46"/>
<stop offset="0.66" stop-color="#F3C264"/>
<stop offset="1" stop-color="#EFC531" stop-opacity="0.32"/>
</linearGradient>
<linearGradient id="paint2_linear_146_20" x1="80" y1="54.5" x2="390.861" y2="54.5" gradientUnits="userSpaceOnUse">
<stop stop-color="#F9F295" stop-opacity="0.46"/>
<stop offset="0.333333" stop-color="#E0AA3E" stop-opacity="0.46"/>
<stop offset="0.66" stop-color="#F3C264"/>
<stop offset="1" stop-color="#EFC531" stop-opacity="0.32"/>
</linearGradient>
</defs>
</svg>
