<svg width="484" height="94" viewBox="0 0 484 94" fill="none" xmlns="http://www.w3.org/2000/svg">
<g filter="url(#filter0_d_7_12)">
<path d="M13.6199 15.0423C13.6199 15.0676 13.6109 15.6418 13.6109 16.3257V16.3543C13.6109 17.0367 14.149 17.5976 14.8308 17.6259C16.2223 17.6935 16.7102 17.8454 17.0084 18.3098C17.1892 18.58 17.1892 18.7911 17.2163 27.4961C17.2434 36.8006 17.2434 36.8006 16.8548 37.2903C16.6108 37.6027 16.2042 37.704 14.8127 37.7631C14.1437 37.796 13.6224 38.3555 13.6368 39.0252L13.638 39.0803C13.6531 39.7748 14.2204 40.3299 14.915 40.3299H22.1861C26.8667 40.3299 30.698 40.3637 30.698 40.3974C30.698 40.4312 30.4811 40.7014 30.2281 41.0053C29.3968 41.951 27.6619 43.952 26.3788 45.4212C25.7011 46.198 25.0415 46.9578 24.9149 47.1098C24.6439 47.4476 23.0897 49.2206 23.0174 49.2797C22.9903 49.3051 22.6559 49.685 22.2855 50.1241C21.906 50.5631 20.7313 51.914 19.6831 53.1214C18.6259 54.3288 17.4964 55.6291 17.162 56.0175C16.8277 56.4059 15.9512 57.4106 15.2193 58.2549C14.4874 59.0993 13.5928 60.1294 13.2314 60.5431C12.8699 60.9568 12.2736 61.6407 11.9031 62.0713C11.5326 62.5019 10.7374 63.4138 10.1411 64.1061C9.54468 64.79 8.91216 65.5162 8.74048 65.7104C8.5688 65.9046 8.36097 66.1325 8.28868 66.217C6.98749 67.7283 6.50858 68.2771 5.91221 68.9526C4.90921 70.0755 4.95439 70.0333 4.42126 70.6666C3.88814 71.2914 3.86103 71.3758 4.33994 70.9536C4.86403 70.4977 8.26157 67.4497 9.41818 66.4111C10.0146 65.8708 10.9904 65.0011 11.5868 64.4692C12.1832 63.9373 13.132 63.0845 13.7103 62.561C14.2796 62.046 14.8759 61.514 15.0205 61.3874C15.1741 61.2692 15.7434 60.7626 16.2856 60.2644C16.8367 59.7747 18.156 58.5927 19.2223 57.6386C21.8337 55.3082 23.2252 54.0586 24.418 52.9779C24.9601 52.4882 25.5113 51.9985 25.6378 51.8972C25.7643 51.7958 26.3336 51.2892 26.9029 50.7742C27.8517 49.913 30.1107 47.8866 32.6317 45.6407C33.1739 45.1594 34.1136 44.3151 34.71 43.7747L35.5823 42.9866C35.6996 42.8806 35.6973 42.6957 35.5774 42.5927C35.4509 42.4829 34.9178 42.0354 34.4028 41.5879C33.8787 41.1404 33.3636 40.7098 33.2552 40.617C32.948 40.389 33.0022 40.3299 33.463 40.3637C33.9239 40.3974 33.9419 40.389 34.5293 39.7135C34.7552 39.4518 34.9449 39.3167 35.0353 39.342C35.1528 39.3673 35.3967 38.7425 36.3726 35.8296C37.0322 33.8792 37.5563 32.275 37.5383 32.2581C37.5112 32.2328 36.5624 32.0808 35.3425 31.9204C35.1275 31.8903 34.918 32.0035 34.8254 32.1998L34.5112 32.866C33.2913 35.4412 32.2432 36.4206 30.3275 36.7584C29.189 36.961 23.93 36.9695 23.4601 36.7753C22.8096 36.4966 22.8367 36.8766 22.8367 27.4201C22.8367 22.7932 22.8728 18.8671 22.918 18.6898C22.9632 18.504 23.0987 18.2676 23.2162 18.1494C23.5776 17.7779 23.9662 17.685 25.3035 17.6344C25.9939 17.6108 26.5414 17.0443 26.5414 16.3535V16.3003C26.5414 15.5822 25.9593 15.0001 25.2412 15.0001H20.0807C16.5295 15.0001 13.6199 15.0169 13.6199 15.0423Z" fill="#E9CF8C"/>
<path d="M13.6199 15.0423C13.6199 15.0676 13.6109 15.6418 13.6109 16.3257V16.3543C13.6109 17.0367 14.149 17.5976 14.8308 17.6259C16.2223 17.6935 16.7102 17.8454 17.0084 18.3098C17.1892 18.58 17.1892 18.7911 17.2163 27.4961C17.2434 36.8006 17.2434 36.8006 16.8548 37.2903C16.6108 37.6027 16.2042 37.704 14.8127 37.7631C14.1437 37.796 13.6224 38.3555 13.6368 39.0252L13.638 39.0803C13.6531 39.7748 14.2204 40.3299 14.915 40.3299H22.1861C26.8667 40.3299 30.698 40.3637 30.698 40.3974C30.698 40.4312 30.4811 40.7014 30.2281 41.0053C29.3968 41.951 27.6619 43.952 26.3788 45.4212C25.7011 46.198 25.0415 46.9578 24.9149 47.1098C24.6439 47.4476 23.0897 49.2206 23.0174 49.2797C22.9903 49.3051 22.6559 49.685 22.2855 50.1241C21.906 50.5631 20.7313 51.914 19.6831 53.1214C18.6259 54.3288 17.4964 55.6291 17.162 56.0175C16.8277 56.4059 15.9512 57.4106 15.2193 58.2549C14.4874 59.0993 13.5928 60.1294 13.2314 60.5431C12.8699 60.9568 12.2736 61.6407 11.9031 62.0713C11.5326 62.5019 10.7374 63.4138 10.1411 64.1061C9.54468 64.79 8.91216 65.5162 8.74048 65.7104C8.5688 65.9046 8.36097 66.1325 8.28868 66.217C6.98749 67.7283 6.50858 68.2771 5.91221 68.9526C4.90921 70.0755 4.95439 70.0333 4.42126 70.6666C3.88814 71.2914 3.86103 71.3758 4.33994 70.9536C4.86403 70.4977 8.26157 67.4497 9.41818 66.4111C10.0146 65.8708 10.9904 65.0011 11.5868 64.4692C12.1832 63.9373 13.132 63.0845 13.7103 62.561C14.2796 62.046 14.8759 61.514 15.0205 61.3874C15.1741 61.2692 15.7434 60.7626 16.2856 60.2644C16.8367 59.7747 18.156 58.5927 19.2223 57.6386C21.8337 55.3082 23.2252 54.0586 24.418 52.9779C24.9601 52.4882 25.5113 51.9985 25.6378 51.8972C25.7643 51.7958 26.3336 51.2892 26.9029 50.7742C27.8517 49.913 30.1107 47.8866 32.6317 45.6407C33.1739 45.1594 34.1136 44.3151 34.71 43.7747L35.5823 42.9866C35.6996 42.8806 35.6973 42.6957 35.5774 42.5927C35.4509 42.4829 34.9178 42.0354 34.4028 41.5879C33.8787 41.1404 33.3636 40.7098 33.2552 40.617C32.948 40.389 33.0022 40.3299 33.463 40.3637C33.9239 40.3974 33.9419 40.389 34.5293 39.7135C34.7552 39.4518 34.9449 39.3167 35.0353 39.342C35.1528 39.3673 35.3967 38.7425 36.3726 35.8296C37.0322 33.8792 37.5563 32.275 37.5383 32.2581C37.5112 32.2328 36.5624 32.0808 35.3425 31.9204C35.1275 31.8903 34.918 32.0035 34.8254 32.1998L34.5112 32.866C33.2913 35.4412 32.2432 36.4206 30.3275 36.7584C29.189 36.961 23.93 36.9695 23.4601 36.7753C22.8096 36.4966 22.8367 36.8766 22.8367 27.4201C22.8367 22.7932 22.8728 18.8671 22.918 18.6898C22.9632 18.504 23.0987 18.2676 23.2162 18.1494C23.5776 17.7779 23.9662 17.685 25.3035 17.6344C25.9939 17.6108 26.5414 17.0443 26.5414 16.3535V16.3003C26.5414 15.5822 25.9593 15.0001 25.2412 15.0001H20.0807C16.5295 15.0001 13.6199 15.0169 13.6199 15.0423Z" fill="url(#paint0_linear_7_12)" fill-opacity="0.69"/>
<path d="M13.6199 15.0423C13.6199 15.0676 13.6109 15.6418 13.6109 16.3257V16.3543C13.6109 17.0367 14.149 17.5976 14.8308 17.6259C16.2223 17.6935 16.7102 17.8454 17.0084 18.3098C17.1892 18.58 17.1892 18.7911 17.2163 27.4961C17.2434 36.8006 17.2434 36.8006 16.8548 37.2903C16.6108 37.6027 16.2042 37.704 14.8127 37.7631C14.1437 37.796 13.6224 38.3555 13.6368 39.0252L13.638 39.0803C13.6531 39.7748 14.2204 40.3299 14.915 40.3299H22.1861C26.8667 40.3299 30.698 40.3637 30.698 40.3974C30.698 40.4312 30.4811 40.7014 30.2281 41.0053C29.3968 41.951 27.6619 43.952 26.3788 45.4212C25.7011 46.198 25.0415 46.9578 24.9149 47.1098C24.6439 47.4476 23.0897 49.2206 23.0174 49.2797C22.9903 49.3051 22.6559 49.685 22.2855 50.1241C21.906 50.5631 20.7313 51.914 19.6831 53.1214C18.6259 54.3288 17.4964 55.6291 17.162 56.0175C16.8277 56.4059 15.9512 57.4106 15.2193 58.2549C14.4874 59.0993 13.5928 60.1294 13.2314 60.5431C12.8699 60.9568 12.2736 61.6407 11.9031 62.0713C11.5326 62.5019 10.7374 63.4138 10.1411 64.1061C9.54468 64.79 8.91216 65.5162 8.74048 65.7104C8.5688 65.9046 8.36097 66.1325 8.28868 66.217C6.98749 67.7283 6.50858 68.2771 5.91221 68.9526C4.90921 70.0755 4.95439 70.0333 4.42126 70.6666C3.88814 71.2914 3.86103 71.3758 4.33994 70.9536C4.86403 70.4977 8.26157 67.4497 9.41818 66.4111C10.0146 65.8708 10.9904 65.0011 11.5868 64.4692C12.1832 63.9373 13.132 63.0845 13.7103 62.561C14.2796 62.046 14.8759 61.514 15.0205 61.3874C15.1741 61.2692 15.7434 60.7626 16.2856 60.2644C16.8367 59.7747 18.156 58.5927 19.2223 57.6386C21.8337 55.3082 23.2252 54.0586 24.418 52.9779C24.9601 52.4882 25.5113 51.9985 25.6378 51.8972C25.7643 51.7958 26.3336 51.2892 26.9029 50.7742C27.8517 49.913 30.1107 47.8866 32.6317 45.6407C33.1739 45.1594 34.1136 44.3151 34.71 43.7747L35.5823 42.9866C35.6996 42.8806 35.6973 42.6957 35.5774 42.5927C35.4509 42.4829 34.9178 42.0354 34.4028 41.5879C33.8787 41.1404 33.3636 40.7098 33.2552 40.617C32.948 40.389 33.0022 40.3299 33.463 40.3637C33.9239 40.3974 33.9419 40.389 34.5293 39.7135C34.7552 39.4518 34.9449 39.3167 35.0353 39.342C35.1528 39.3673 35.3967 38.7425 36.3726 35.8296C37.0322 33.8792 37.5563 32.275 37.5383 32.2581C37.5112 32.2328 36.5624 32.0808 35.3425 31.9204C35.1275 31.8903 34.918 32.0035 34.8254 32.1998L34.5112 32.866C33.2913 35.4412 32.2432 36.4206 30.3275 36.7584C29.189 36.961 23.93 36.9695 23.4601 36.7753C22.8096 36.4966 22.8367 36.8766 22.8367 27.4201C22.8367 22.7932 22.8728 18.8671 22.918 18.6898C22.9632 18.504 23.0987 18.2676 23.2162 18.1494C23.5776 17.7779 23.9662 17.685 25.3035 17.6344C25.9939 17.6108 26.5414 17.0443 26.5414 16.3535V16.3003C26.5414 15.5822 25.9593 15.0001 25.2412 15.0001H20.0807C16.5295 15.0001 13.6199 15.0169 13.6199 15.0423Z" fill="black" fill-opacity="0.2"/>
<path d="M67.7457 21.0876C67.6192 21.1889 67.1313 21.5942 66.6614 21.9995C65.4144 23.0633 63.5259 24.6675 61.8813 26.0522C61.4928 26.3815 60.7789 26.9894 60.2006 27.4876C59.9025 27.7493 59.2519 28.3066 58.7549 28.7288C56.2338 30.8733 55.52 31.4728 54.7339 32.1314C53.4056 33.2459 52.6646 33.9636 51.8333 34.9261C51.4086 35.4158 50.8032 36.1166 50.4779 36.4881C48.8604 38.3456 46.5924 40.9546 46.0683 41.5541C45.743 41.9256 45.4177 42.2971 45.3364 42.39C45.2641 42.4744 45.0563 42.7108 44.8846 42.905C44.7129 43.0992 44.4418 43.4116 44.2882 43.5889C44.1346 43.7747 43.4117 44.6021 42.6798 45.438C41.0353 47.3208 40.8094 47.5741 37.0594 51.8971C35.3877 53.8222 33.6709 55.7979 33.2372 56.2876C31.6649 58.0607 31.5113 58.2464 31.5113 58.3478C31.5113 58.4322 33.5263 60.2728 33.6709 60.315C33.698 60.3235 34.0685 59.9351 34.4932 59.4454C34.9179 58.9557 35.4962 58.2802 35.7853 57.9509C36.0745 57.6132 36.3817 57.267 36.463 57.1741C36.5444 57.0813 36.8696 56.7098 37.1859 56.3467C37.5022 55.9921 37.7913 55.6966 37.8365 55.6966C37.8817 55.6966 37.9269 55.8232 37.9449 55.9668C37.9605 56.1264 38.0915 56.25 38.2518 56.2563L39.0564 56.2876C40.0955 56.3298 40.1678 56.3467 40.6015 56.6084C41.0081 56.8449 41.5051 57.3177 41.8846 57.8158C41.975 57.934 41.9931 59.724 41.975 66.6475C41.9479 76.0364 41.966 75.6565 41.4599 75.876C41.2702 75.9604 39.6889 76.104 38.7582 76.1293C38.6441 76.1293 38.5524 76.2231 38.5549 76.3371L38.5775 77.3704C38.5925 78.0649 39.1598 78.6201 39.8545 78.6201H43.8455H47.8367C48.5269 78.6201 49.0863 78.0606 49.0863 77.3704V77.3327C49.0863 76.6534 48.5456 76.0974 47.8665 76.0786C46.3394 76.028 45.9328 75.9098 45.7701 75.4707C45.6436 75.0992 45.5442 62.2823 45.6798 62.2823C45.7249 62.2823 45.978 62.5356 46.249 62.848C46.5201 63.1604 47.3514 64.1061 48.0924 64.9504C48.8424 65.7947 50.1436 67.2723 50.9839 68.2348C52.7098 70.2021 54.7248 72.4902 56.4417 74.4406C57.0742 75.1583 58.2308 76.4839 59.0169 77.3704L59.7658 78.2252C60.1972 78.7176 60.8201 79 61.4747 79C62.0391 79 62.4969 78.5433 62.4983 77.9789L62.5229 68.1335C62.55 59.6818 62.5862 57.191 62.6675 56.9462C62.8572 56.4311 63.1374 56.3467 64.7006 56.3045L64.7712 56.3027C65.4709 56.2849 66.0289 55.7126 66.0289 55.0127C66.0289 54.3179 65.4656 53.7546 64.7708 53.7546H60.7428H56.6892C56.0079 53.7546 55.4599 54.3147 55.4748 54.9958C55.49 55.6963 56.0508 56.2625 56.7512 56.2843L56.8573 56.2876C58.6374 56.3551 58.7368 56.4142 58.8904 57.495C58.9989 58.2633 59.0079 69.1214 58.8995 69.1214C58.8633 69.1214 58.0772 68.2602 57.1645 67.2047C56.2519 66.1578 55.1947 64.9504 54.8242 64.5282C54.4447 64.1061 53.7037 63.2533 53.1616 62.6369C52.023 61.3198 51.9869 61.2776 51.5712 60.8047C51.011 60.1715 50.1887 59.2259 49.2219 58.1113C48.6978 57.5203 47.9478 56.6591 47.5502 56.2032C47.1526 55.7557 46.5111 55.0211 46.1225 54.5736C45.6748 54.0533 45.0237 53.7524 44.3372 53.7485L42.4449 53.7377L41.3237 53.7282C40.5972 53.722 40.2133 52.8658 40.6919 52.3193C41.3605 51.5509 42.4629 50.2929 43.1226 49.5245C43.7912 48.7478 44.3876 48.0638 44.4509 48.0047C44.5141 47.9372 44.7129 47.7177 44.8846 47.5066C45.0563 47.2955 45.2189 47.1098 45.246 47.0844C45.2731 47.0591 45.5352 46.7551 45.8334 46.409C46.1316 46.0628 46.4207 45.7335 46.4659 45.6828C46.5201 45.6322 46.8454 45.2522 47.2069 44.8385C47.5683 44.4248 48.8876 42.905 50.1436 41.4697C52.2851 39.0042 53.1254 38.0417 55.3212 35.5087C55.8182 34.9346 56.6224 34.0058 57.1194 33.4485C58.041 32.4016 61.8994 27.9604 63.4084 26.2211C63.8783 25.6807 64.5921 24.8617 64.9897 24.3974C66.6404 22.5168 67.4748 21.5574 67.8125 21.1531C67.943 20.9969 67.9098 20.9671 67.7457 21.0876Z" fill="#E9CF8C"/>
<path d="M67.7457 21.0876C67.6192 21.1889 67.1313 21.5942 66.6614 21.9995C65.4144 23.0633 63.5259 24.6675 61.8813 26.0522C61.4928 26.3815 60.7789 26.9894 60.2006 27.4876C59.9025 27.7493 59.2519 28.3066 58.7549 28.7288C56.2338 30.8733 55.52 31.4728 54.7339 32.1314C53.4056 33.2459 52.6646 33.9636 51.8333 34.9261C51.4086 35.4158 50.8032 36.1166 50.4779 36.4881C48.8604 38.3456 46.5924 40.9546 46.0683 41.5541C45.743 41.9256 45.4177 42.2971 45.3364 42.39C45.2641 42.4744 45.0563 42.7108 44.8846 42.905C44.7129 43.0992 44.4418 43.4116 44.2882 43.5889C44.1346 43.7747 43.4117 44.6021 42.6798 45.438C41.0353 47.3208 40.8094 47.5741 37.0594 51.8971C35.3877 53.8222 33.6709 55.7979 33.2372 56.2876C31.6649 58.0607 31.5113 58.2464 31.5113 58.3478C31.5113 58.4322 33.5263 60.2728 33.6709 60.315C33.698 60.3235 34.0685 59.9351 34.4932 59.4454C34.9179 58.9557 35.4962 58.2802 35.7853 57.9509C36.0745 57.6132 36.3817 57.267 36.463 57.1741C36.5444 57.0813 36.8696 56.7098 37.1859 56.3467C37.5022 55.9921 37.7913 55.6966 37.8365 55.6966C37.8817 55.6966 37.9269 55.8232 37.9449 55.9668C37.9605 56.1264 38.0915 56.25 38.2518 56.2563L39.0564 56.2876C40.0955 56.3298 40.1678 56.3467 40.6015 56.6084C41.0081 56.8449 41.5051 57.3177 41.8846 57.8158C41.975 57.934 41.9931 59.724 41.975 66.6475C41.9479 76.0364 41.966 75.6565 41.4599 75.876C41.2702 75.9604 39.6889 76.104 38.7582 76.1293C38.6441 76.1293 38.5524 76.2231 38.5549 76.3371L38.5775 77.3704C38.5925 78.0649 39.1598 78.6201 39.8545 78.6201H43.8455H47.8367C48.5269 78.6201 49.0863 78.0606 49.0863 77.3704V77.3327C49.0863 76.6534 48.5456 76.0974 47.8665 76.0786C46.3394 76.028 45.9328 75.9098 45.7701 75.4707C45.6436 75.0992 45.5442 62.2823 45.6798 62.2823C45.7249 62.2823 45.978 62.5356 46.249 62.848C46.5201 63.1604 47.3514 64.1061 48.0924 64.9504C48.8424 65.7947 50.1436 67.2723 50.9839 68.2348C52.7098 70.2021 54.7248 72.4902 56.4417 74.4406C57.0742 75.1583 58.2308 76.4839 59.0169 77.3704L59.7658 78.2252C60.1972 78.7176 60.8201 79 61.4747 79C62.0391 79 62.4969 78.5433 62.4983 77.9789L62.5229 68.1335C62.55 59.6818 62.5862 57.191 62.6675 56.9462C62.8572 56.4311 63.1374 56.3467 64.7006 56.3045L64.7712 56.3027C65.4709 56.2849 66.0289 55.7126 66.0289 55.0127C66.0289 54.3179 65.4656 53.7546 64.7708 53.7546H60.7428H56.6892C56.0079 53.7546 55.4599 54.3147 55.4748 54.9958C55.49 55.6963 56.0508 56.2625 56.7512 56.2843L56.8573 56.2876C58.6374 56.3551 58.7368 56.4142 58.8904 57.495C58.9989 58.2633 59.0079 69.1214 58.8995 69.1214C58.8633 69.1214 58.0772 68.2602 57.1645 67.2047C56.2519 66.1578 55.1947 64.9504 54.8242 64.5282C54.4447 64.1061 53.7037 63.2533 53.1616 62.6369C52.023 61.3198 51.9869 61.2776 51.5712 60.8047C51.011 60.1715 50.1887 59.2259 49.2219 58.1113C48.6978 57.5203 47.9478 56.6591 47.5502 56.2032C47.1526 55.7557 46.5111 55.0211 46.1225 54.5736C45.6748 54.0533 45.0237 53.7524 44.3372 53.7485L42.4449 53.7377L41.3237 53.7282C40.5972 53.722 40.2133 52.8658 40.6919 52.3193C41.3605 51.5509 42.4629 50.2929 43.1226 49.5245C43.7912 48.7478 44.3876 48.0638 44.4509 48.0047C44.5141 47.9372 44.7129 47.7177 44.8846 47.5066C45.0563 47.2955 45.2189 47.1098 45.246 47.0844C45.2731 47.0591 45.5352 46.7551 45.8334 46.409C46.1316 46.0628 46.4207 45.7335 46.4659 45.6828C46.5201 45.6322 46.8454 45.2522 47.2069 44.8385C47.5683 44.4248 48.8876 42.905 50.1436 41.4697C52.2851 39.0042 53.1254 38.0417 55.3212 35.5087C55.8182 34.9346 56.6224 34.0058 57.1194 33.4485C58.041 32.4016 61.8994 27.9604 63.4084 26.2211C63.8783 25.6807 64.5921 24.8617 64.9897 24.3974C66.6404 22.5168 67.4748 21.5574 67.8125 21.1531C67.943 20.9969 67.9098 20.9671 67.7457 21.0876Z" fill="url(#paint1_linear_7_12)" fill-opacity="0.69"/>
<path d="M67.7457 21.0876C67.6192 21.1889 67.1313 21.5942 66.6614 21.9995C65.4144 23.0633 63.5259 24.6675 61.8813 26.0522C61.4928 26.3815 60.7789 26.9894 60.2006 27.4876C59.9025 27.7493 59.2519 28.3066 58.7549 28.7288C56.2338 30.8733 55.52 31.4728 54.7339 32.1314C53.4056 33.2459 52.6646 33.9636 51.8333 34.9261C51.4086 35.4158 50.8032 36.1166 50.4779 36.4881C48.8604 38.3456 46.5924 40.9546 46.0683 41.5541C45.743 41.9256 45.4177 42.2971 45.3364 42.39C45.2641 42.4744 45.0563 42.7108 44.8846 42.905C44.7129 43.0992 44.4418 43.4116 44.2882 43.5889C44.1346 43.7747 43.4117 44.6021 42.6798 45.438C41.0353 47.3208 40.8094 47.5741 37.0594 51.8971C35.3877 53.8222 33.6709 55.7979 33.2372 56.2876C31.6649 58.0607 31.5113 58.2464 31.5113 58.3478C31.5113 58.4322 33.5263 60.2728 33.6709 60.315C33.698 60.3235 34.0685 59.9351 34.4932 59.4454C34.9179 58.9557 35.4962 58.2802 35.7853 57.9509C36.0745 57.6132 36.3817 57.267 36.463 57.1741C36.5444 57.0813 36.8696 56.7098 37.1859 56.3467C37.5022 55.9921 37.7913 55.6966 37.8365 55.6966C37.8817 55.6966 37.9269 55.8232 37.9449 55.9668C37.9605 56.1264 38.0915 56.25 38.2518 56.2563L39.0564 56.2876C40.0955 56.3298 40.1678 56.3467 40.6015 56.6084C41.0081 56.8449 41.5051 57.3177 41.8846 57.8158C41.975 57.934 41.9931 59.724 41.975 66.6475C41.9479 76.0364 41.966 75.6565 41.4599 75.876C41.2702 75.9604 39.6889 76.104 38.7582 76.1293C38.6441 76.1293 38.5524 76.2231 38.5549 76.3371L38.5775 77.3704C38.5925 78.0649 39.1598 78.6201 39.8545 78.6201H43.8455H47.8367C48.5269 78.6201 49.0863 78.0606 49.0863 77.3704V77.3327C49.0863 76.6534 48.5456 76.0974 47.8665 76.0786C46.3394 76.028 45.9328 75.9098 45.7701 75.4707C45.6436 75.0992 45.5442 62.2823 45.6798 62.2823C45.7249 62.2823 45.978 62.5356 46.249 62.848C46.5201 63.1604 47.3514 64.1061 48.0924 64.9504C48.8424 65.7947 50.1436 67.2723 50.9839 68.2348C52.7098 70.2021 54.7248 72.4902 56.4417 74.4406C57.0742 75.1583 58.2308 76.4839 59.0169 77.3704L59.7658 78.2252C60.1972 78.7176 60.8201 79 61.4747 79C62.0391 79 62.4969 78.5433 62.4983 77.9789L62.5229 68.1335C62.55 59.6818 62.5862 57.191 62.6675 56.9462C62.8572 56.4311 63.1374 56.3467 64.7006 56.3045L64.7712 56.3027C65.4709 56.2849 66.0289 55.7126 66.0289 55.0127C66.0289 54.3179 65.4656 53.7546 64.7708 53.7546H60.7428H56.6892C56.0079 53.7546 55.4599 54.3147 55.4748 54.9958C55.49 55.6963 56.0508 56.2625 56.7512 56.2843L56.8573 56.2876C58.6374 56.3551 58.7368 56.4142 58.8904 57.495C58.9989 58.2633 59.0079 69.1214 58.8995 69.1214C58.8633 69.1214 58.0772 68.2602 57.1645 67.2047C56.2519 66.1578 55.1947 64.9504 54.8242 64.5282C54.4447 64.1061 53.7037 63.2533 53.1616 62.6369C52.023 61.3198 51.9869 61.2776 51.5712 60.8047C51.011 60.1715 50.1887 59.2259 49.2219 58.1113C48.6978 57.5203 47.9478 56.6591 47.5502 56.2032C47.1526 55.7557 46.5111 55.0211 46.1225 54.5736C45.6748 54.0533 45.0237 53.7524 44.3372 53.7485L42.4449 53.7377L41.3237 53.7282C40.5972 53.722 40.2133 52.8658 40.6919 52.3193C41.3605 51.5509 42.4629 50.2929 43.1226 49.5245C43.7912 48.7478 44.3876 48.0638 44.4509 48.0047C44.5141 47.9372 44.7129 47.7177 44.8846 47.5066C45.0563 47.2955 45.2189 47.1098 45.246 47.0844C45.2731 47.0591 45.5352 46.7551 45.8334 46.409C46.1316 46.0628 46.4207 45.7335 46.4659 45.6828C46.5201 45.6322 46.8454 45.2522 47.2069 44.8385C47.5683 44.4248 48.8876 42.905 50.1436 41.4697C52.2851 39.0042 53.1254 38.0417 55.3212 35.5087C55.8182 34.9346 56.6224 34.0058 57.1194 33.4485C58.041 32.4016 61.8994 27.9604 63.4084 26.2211C63.8783 25.6807 64.5921 24.8617 64.9897 24.3974C66.6404 22.5168 67.4748 21.5574 67.8125 21.1531C67.943 20.9969 67.9098 20.9671 67.7457 21.0876Z" fill="black" fill-opacity="0.2"/>
<path d="M112.934 65.5H85.0195V64.4805C85.8633 64.4805 86.6133 64.4336 87.2695 64.3398C87.9258 64.2227 88.4648 64.0117 88.8867 63.707C89.332 63.3789 89.6719 62.9219 89.9062 62.3359C90.1406 61.75 90.2578 60.9766 90.2578 60.0156V35.0547C90.2578 34.1172 90.1406 33.3555 89.9062 32.7695C89.6719 32.1836 89.332 31.7383 88.8867 31.4336C88.4648 31.1055 87.9258 30.8828 87.2695 30.7656C86.6133 30.6484 85.8633 30.5898 85.0195 30.5898V29.5703H100.629V30.5898C99.7617 30.5898 99 30.6484 98.3438 30.7656C97.6875 30.8828 97.1367 31.1055 96.6914 31.4336C96.2461 31.7383 95.9062 32.1836 95.6719 32.7695C95.4375 33.3555 95.3203 34.1172 95.3203 35.0547V58.7148C95.3203 59.6055 95.3906 60.3438 95.5312 60.9297C95.6719 61.4922 95.9062 61.9492 96.2344 62.3008C96.5859 62.6289 97.0547 62.8633 97.6406 63.0039C98.2266 63.1211 98.9648 63.1797 99.8555 63.1797H103.441C105.176 63.1797 106.629 63.0859 107.801 62.8984C108.973 62.6875 109.98 62.3125 110.824 61.7734C111.691 61.2109 112.453 60.4375 113.109 59.4531C113.766 58.4453 114.434 57.1445 115.113 55.5508L116.027 55.6914L112.934 65.5ZM153.83 65.5H126.197V64.4805C127.322 64.4805 128.213 64.4102 128.869 64.2695C129.549 64.1289 130.065 63.8711 130.416 63.4961C130.768 63.0977 131.002 62.5586 131.119 61.8789C131.236 61.1758 131.295 60.2734 131.295 59.1719V35.7578C131.295 34.6328 131.248 33.7305 131.154 33.0508C131.061 32.3711 130.838 31.8438 130.486 31.4688C130.135 31.0938 129.619 30.8477 128.94 30.7305C128.26 30.5898 127.346 30.5195 126.197 30.5195V29.5703H153.83L154.252 37.4102H153.268C152.963 36.2617 152.67 35.3125 152.389 34.5625C152.131 33.7891 151.768 33.1797 151.299 32.7344C150.854 32.2891 150.232 31.9727 149.436 31.7852C148.662 31.5977 147.607 31.5039 146.272 31.5039H136.357V45.707H144.268C145.369 45.707 146.248 45.6367 146.904 45.4961C147.584 45.332 148.123 45.0625 148.522 44.6875C148.943 44.2891 149.248 43.7617 149.436 43.1055C149.647 42.4258 149.822 41.5586 149.963 40.5039H150.947V53.0547H149.963C149.822 52 149.647 51.1328 149.436 50.4531C149.248 49.7734 148.955 49.2344 148.557 48.8359C148.158 48.4141 147.619 48.1211 146.94 47.957C146.283 47.793 145.393 47.7109 144.268 47.7109H136.357V59.5234C136.357 60.1797 136.369 60.7656 136.393 61.2812C136.44 61.7734 136.557 62.1953 136.744 62.5469C136.932 62.875 137.225 63.1328 137.623 63.3203C138.045 63.4844 138.631 63.5664 139.381 63.5664H145.428C146.998 63.5664 148.287 63.4375 149.295 63.1797C150.303 62.9219 151.17 62.5117 151.897 61.9492C152.647 61.3867 153.315 60.6602 153.9 59.7695C154.486 58.8555 155.143 57.7656 155.869 56.5H156.994L153.83 65.5ZM203.164 47.3594C203.164 49.9141 202.742 52.3398 201.899 54.6367C201.055 56.9336 199.86 58.9609 198.313 60.7188C196.789 62.4531 194.938 63.8359 192.758 64.8672C190.602 65.875 188.188 66.3789 185.516 66.3789C182.844 66.3789 180.418 65.875 178.238 64.8672C176.082 63.8594 174.231 62.5 172.684 60.7891C171.16 59.0547 169.988 57.0391 169.168 54.7422C168.348 52.4453 167.938 50.0078 167.938 47.4297C167.938 44.8281 168.371 42.4023 169.238 40.1523C170.129 37.8789 171.371 35.9102 172.965 34.2461C174.559 32.5586 176.457 31.2344 178.66 30.2734C180.863 29.2891 183.289 28.7969 185.938 28.7969C188.539 28.7969 190.895 29.3008 193.004 30.3086C195.113 31.293 196.918 32.6406 198.418 34.3516C199.942 36.0391 201.113 38.0078 201.934 40.2578C202.754 42.5078 203.164 44.875 203.164 47.3594ZM197.117 47.7109C197.117 46.3984 197.047 45.0625 196.906 43.7031C196.789 42.3438 196.567 41.0312 196.238 39.7656C195.91 38.5 195.465 37.3164 194.902 36.2148C194.34 35.1133 193.625 34.1523 192.758 33.332C191.891 32.5117 190.848 31.8672 189.629 31.3984C188.434 30.9062 187.016 30.6602 185.375 30.6602C183.875 30.6602 182.551 30.9062 181.402 31.3984C180.277 31.8672 179.293 32.5117 178.449 33.332C177.606 34.1523 176.902 35.1133 176.34 36.2148C175.777 37.3164 175.32 38.4883 174.969 39.7305C174.641 40.9492 174.406 42.2148 174.266 43.5273C174.125 44.8164 174.055 46.0703 174.055 47.2891C174.055 48.4844 174.125 49.7383 174.266 51.0508C174.406 52.3633 174.652 53.6523 175.004 54.918C175.356 56.1836 175.813 57.3906 176.375 58.5391C176.938 59.6875 177.641 60.6953 178.485 61.5625C179.328 62.4297 180.324 63.1211 181.473 63.6367C182.621 64.1523 183.945 64.4102 185.445 64.4102C187.016 64.4102 188.387 64.1758 189.559 63.707C190.754 63.2383 191.785 62.6055 192.652 61.8086C193.52 60.9883 194.235 60.0391 194.797 58.9609C195.383 57.8594 195.84 56.6992 196.168 55.4805C196.52 54.2383 196.766 52.9609 196.906 51.6484C197.047 50.3125 197.117 49 197.117 47.7109ZM251.619 30.5195C250.494 30.5195 249.592 30.5898 248.912 30.7305C248.233 30.8711 247.705 31.1406 247.33 31.5391C246.979 31.9141 246.744 32.4414 246.627 33.1211C246.533 33.8008 246.487 34.6797 246.487 35.7578V66.0625H245.572L221.807 37.1289V59.2422C221.807 60.3672 221.854 61.2695 221.947 61.9492C222.065 62.6289 222.299 63.1562 222.651 63.5312C223.002 63.9062 223.518 64.1641 224.197 64.3047C224.877 64.4219 225.78 64.4805 226.905 64.4805V65.5H214.389V64.4805C215.514 64.4805 216.405 64.4102 217.061 64.2695C217.74 64.1289 218.256 63.8711 218.608 63.4961C218.959 63.0977 219.194 62.5586 219.311 61.8789C219.428 61.1992 219.487 60.3203 219.487 59.2422V34.2461C219.041 33.6367 218.619 33.1094 218.221 32.6641C217.846 32.1953 217.436 31.8086 216.99 31.5039C216.569 31.1758 216.076 30.9297 215.514 30.7656C214.951 30.6016 214.26 30.5195 213.44 30.5195V29.5703H222.229L244.201 56.5V35.7578C244.201 34.6797 244.143 33.8008 244.026 33.1211C243.908 32.4414 243.662 31.9141 243.287 31.5391C242.936 31.1406 242.42 30.8711 241.74 30.7305C241.084 30.5898 240.194 30.5195 239.069 30.5195V29.5703H251.619V30.5195ZM288.543 39.5195C288.543 41.4648 288.203 43.082 287.524 44.3711C286.867 45.6367 285.965 46.6445 284.817 47.3945C283.668 48.1445 282.321 48.6719 280.774 48.9766C279.25 49.2812 277.633 49.4336 275.922 49.4336C275.172 49.4336 274.422 49.4219 273.672 49.3984C272.946 49.375 272.16 49.293 271.317 49.1523V59.1719C271.317 60.2734 271.375 61.1758 271.492 61.8789C271.633 62.5586 271.879 63.0977 272.231 63.4961C272.606 63.8711 273.133 64.1289 273.813 64.2695C274.492 64.4102 275.395 64.4805 276.52 64.4805V65.5H261.192V64.4805C262.317 64.4805 263.207 64.4102 263.864 64.2695C264.543 64.1289 265.059 63.8711 265.41 63.4961C265.762 63.0977 265.985 62.5586 266.078 61.8789C266.172 61.1758 266.219 60.2734 266.219 59.1719V35.8984C266.219 34.7734 266.172 33.8711 266.078 33.1914C265.985 32.4883 265.762 31.9375 265.41 31.5391C265.082 31.1406 264.578 30.8711 263.899 30.7305C263.242 30.5898 262.34 30.5195 261.192 30.5195V29.5703H274.27C275.887 29.5703 277.539 29.7109 279.227 29.9922C280.938 30.2734 282.473 30.7891 283.832 31.5391C285.215 32.2656 286.34 33.2734 287.207 34.5625C288.098 35.8516 288.543 37.5039 288.543 39.5195ZM282.496 40.0117C282.496 38.8633 282.321 37.7852 281.969 36.7773C281.641 35.7461 281.149 34.8555 280.492 34.1055C279.86 33.3555 279.063 32.7578 278.102 32.3125C277.164 31.8672 276.086 31.6445 274.867 31.6445C274.282 31.6445 273.684 31.7031 273.075 31.8203C272.489 31.9375 271.903 32.0547 271.317 32.1719V47.3594C272.043 47.4766 272.77 47.5703 273.496 47.6406C274.223 47.6875 274.961 47.7109 275.711 47.7109C276.766 47.7109 277.703 47.5 278.524 47.0781C279.367 46.6328 280.082 46.0586 280.668 45.3555C281.254 44.6289 281.7 43.8086 282.004 42.8945C282.332 41.957 282.496 40.9961 282.496 40.0117ZM327.26 65.5H299.346V64.4805C300.19 64.4805 300.94 64.4336 301.596 64.3398C302.252 64.2227 302.791 64.0117 303.213 63.707C303.659 63.3789 303.998 62.9219 304.233 62.3359C304.467 61.75 304.584 60.9766 304.584 60.0156V35.0547C304.584 34.1172 304.467 33.3555 304.233 32.7695C303.998 32.1836 303.659 31.7383 303.213 31.4336C302.791 31.1055 302.252 30.8828 301.596 30.7656C300.94 30.6484 300.19 30.5898 299.346 30.5898V29.5703H314.955V30.5898C314.088 30.5898 313.327 30.6484 312.67 30.7656C312.014 30.8828 311.463 31.1055 311.018 31.4336C310.573 31.7383 310.233 32.1836 309.998 32.7695C309.764 33.3555 309.647 34.1172 309.647 35.0547V58.7148C309.647 59.6055 309.717 60.3438 309.858 60.9297C309.998 61.4922 310.233 61.9492 310.561 62.3008C310.913 62.6289 311.381 62.8633 311.967 63.0039C312.553 63.1211 313.291 63.1797 314.182 63.1797H317.768C319.502 63.1797 320.955 63.0859 322.127 62.8984C323.299 62.6875 324.307 62.3125 325.151 61.7734C326.018 61.2109 326.78 60.4375 327.436 59.4531C328.092 58.4453 328.76 57.1445 329.44 55.5508L330.354 55.6914L327.26 65.5ZM376.454 47.3594C376.454 49.9141 376.032 52.3398 375.188 54.6367C374.344 56.9336 373.149 58.9609 371.602 60.7188C370.079 62.4531 368.227 63.8359 366.047 64.8672C363.891 65.875 361.477 66.3789 358.805 66.3789C356.133 66.3789 353.708 65.875 351.528 64.8672C349.372 63.8594 347.52 62.5 345.973 60.7891C344.45 59.0547 343.278 57.0391 342.458 54.7422C341.637 52.4453 341.227 50.0078 341.227 47.4297C341.227 44.8281 341.661 42.4023 342.528 40.1523C343.418 37.8789 344.661 35.9102 346.254 34.2461C347.848 32.5586 349.747 31.2344 351.95 30.2734C354.153 29.2891 356.579 28.7969 359.227 28.7969C361.829 28.7969 364.184 29.3008 366.293 30.3086C368.403 31.293 370.208 32.6406 371.708 34.3516C373.231 36.0391 374.403 38.0078 375.223 40.2578C376.043 42.5078 376.454 44.875 376.454 47.3594ZM370.407 47.7109C370.407 46.3984 370.336 45.0625 370.196 43.7031C370.079 42.3438 369.856 41.0312 369.528 39.7656C369.2 38.5 368.754 37.3164 368.192 36.2148C367.629 35.1133 366.915 34.1523 366.047 33.332C365.18 32.5117 364.137 31.8672 362.918 31.3984C361.723 30.9062 360.305 30.6602 358.665 30.6602C357.165 30.6602 355.84 30.9062 354.692 31.3984C353.567 31.8672 352.583 32.5117 351.739 33.332C350.895 34.1523 350.192 35.1133 349.629 36.2148C349.067 37.3164 348.61 38.4883 348.258 39.7305C347.93 40.9492 347.696 42.2148 347.555 43.5273C347.415 44.8164 347.344 46.0703 347.344 47.2891C347.344 48.4844 347.415 49.7383 347.555 51.0508C347.696 52.3633 347.942 53.6523 348.293 54.918C348.645 56.1836 349.102 57.3906 349.665 58.5391C350.227 59.6875 350.93 60.6953 351.774 61.5625C352.618 62.4297 353.614 63.1211 354.762 63.6367C355.911 64.1523 357.235 64.4102 358.735 64.4102C360.305 64.4102 361.676 64.1758 362.848 63.707C364.043 63.2383 365.075 62.6055 365.942 61.8086C366.809 60.9883 367.524 60.0391 368.086 58.9609C368.672 57.8594 369.129 56.6992 369.458 55.4805C369.809 54.2383 370.055 52.9609 370.196 51.6484C370.336 50.3125 370.407 49 370.407 47.7109ZM417.104 38.0078C416.893 35.9688 416.272 34.4336 415.241 33.4023C414.21 32.3477 412.628 31.8203 410.495 31.8203H405.467V59.2422C405.467 60.3438 405.514 61.2344 405.608 61.9141C405.702 62.5938 405.924 63.1328 406.276 63.5312C406.628 63.9062 407.131 64.1641 407.788 64.3047C408.467 64.4219 409.37 64.4805 410.495 64.4805V65.5H395.307V64.4805C396.432 64.4805 397.323 64.4102 397.979 64.2695C398.635 64.1289 399.139 63.8711 399.491 63.4961C399.842 63.0977 400.065 62.5586 400.159 61.8789C400.276 61.1992 400.335 60.3203 400.335 59.2422V31.8203H396.01C394.885 31.8203 393.901 31.9258 393.057 32.1367C392.213 32.3242 391.499 32.6523 390.913 33.1211C390.35 33.5898 389.905 34.2227 389.577 35.0195C389.272 35.8164 389.073 36.8125 388.979 38.0078H387.749L388.1 29.5703H417.913L418.264 38.0078H417.104Z" fill="#E9CF8C"/>
<path d="M112.934 65.5H85.0195V64.4805C85.8633 64.4805 86.6133 64.4336 87.2695 64.3398C87.9258 64.2227 88.4648 64.0117 88.8867 63.707C89.332 63.3789 89.6719 62.9219 89.9062 62.3359C90.1406 61.75 90.2578 60.9766 90.2578 60.0156V35.0547C90.2578 34.1172 90.1406 33.3555 89.9062 32.7695C89.6719 32.1836 89.332 31.7383 88.8867 31.4336C88.4648 31.1055 87.9258 30.8828 87.2695 30.7656C86.6133 30.6484 85.8633 30.5898 85.0195 30.5898V29.5703H100.629V30.5898C99.7617 30.5898 99 30.6484 98.3438 30.7656C97.6875 30.8828 97.1367 31.1055 96.6914 31.4336C96.2461 31.7383 95.9062 32.1836 95.6719 32.7695C95.4375 33.3555 95.3203 34.1172 95.3203 35.0547V58.7148C95.3203 59.6055 95.3906 60.3438 95.5312 60.9297C95.6719 61.4922 95.9062 61.9492 96.2344 62.3008C96.5859 62.6289 97.0547 62.8633 97.6406 63.0039C98.2266 63.1211 98.9648 63.1797 99.8555 63.1797H103.441C105.176 63.1797 106.629 63.0859 107.801 62.8984C108.973 62.6875 109.98 62.3125 110.824 61.7734C111.691 61.2109 112.453 60.4375 113.109 59.4531C113.766 58.4453 114.434 57.1445 115.113 55.5508L116.027 55.6914L112.934 65.5ZM153.83 65.5H126.197V64.4805C127.322 64.4805 128.213 64.4102 128.869 64.2695C129.549 64.1289 130.065 63.8711 130.416 63.4961C130.768 63.0977 131.002 62.5586 131.119 61.8789C131.236 61.1758 131.295 60.2734 131.295 59.1719V35.7578C131.295 34.6328 131.248 33.7305 131.154 33.0508C131.061 32.3711 130.838 31.8438 130.486 31.4688C130.135 31.0938 129.619 30.8477 128.94 30.7305C128.26 30.5898 127.346 30.5195 126.197 30.5195V29.5703H153.83L154.252 37.4102H153.268C152.963 36.2617 152.67 35.3125 152.389 34.5625C152.131 33.7891 151.768 33.1797 151.299 32.7344C150.854 32.2891 150.232 31.9727 149.436 31.7852C148.662 31.5977 147.607 31.5039 146.272 31.5039H136.357V45.707H144.268C145.369 45.707 146.248 45.6367 146.904 45.4961C147.584 45.332 148.123 45.0625 148.522 44.6875C148.943 44.2891 149.248 43.7617 149.436 43.1055C149.647 42.4258 149.822 41.5586 149.963 40.5039H150.947V53.0547H149.963C149.822 52 149.647 51.1328 149.436 50.4531C149.248 49.7734 148.955 49.2344 148.557 48.8359C148.158 48.4141 147.619 48.1211 146.94 47.957C146.283 47.793 145.393 47.7109 144.268 47.7109H136.357V59.5234C136.357 60.1797 136.369 60.7656 136.393 61.2812C136.44 61.7734 136.557 62.1953 136.744 62.5469C136.932 62.875 137.225 63.1328 137.623 63.3203C138.045 63.4844 138.631 63.5664 139.381 63.5664H145.428C146.998 63.5664 148.287 63.4375 149.295 63.1797C150.303 62.9219 151.17 62.5117 151.897 61.9492C152.647 61.3867 153.315 60.6602 153.9 59.7695C154.486 58.8555 155.143 57.7656 155.869 56.5H156.994L153.83 65.5ZM203.164 47.3594C203.164 49.9141 202.742 52.3398 201.899 54.6367C201.055 56.9336 199.86 58.9609 198.313 60.7188C196.789 62.4531 194.938 63.8359 192.758 64.8672C190.602 65.875 188.188 66.3789 185.516 66.3789C182.844 66.3789 180.418 65.875 178.238 64.8672C176.082 63.8594 174.231 62.5 172.684 60.7891C171.16 59.0547 169.988 57.0391 169.168 54.7422C168.348 52.4453 167.938 50.0078 167.938 47.4297C167.938 44.8281 168.371 42.4023 169.238 40.1523C170.129 37.8789 171.371 35.9102 172.965 34.2461C174.559 32.5586 176.457 31.2344 178.66 30.2734C180.863 29.2891 183.289 28.7969 185.938 28.7969C188.539 28.7969 190.895 29.3008 193.004 30.3086C195.113 31.293 196.918 32.6406 198.418 34.3516C199.942 36.0391 201.113 38.0078 201.934 40.2578C202.754 42.5078 203.164 44.875 203.164 47.3594ZM197.117 47.7109C197.117 46.3984 197.047 45.0625 196.906 43.7031C196.789 42.3438 196.567 41.0312 196.238 39.7656C195.91 38.5 195.465 37.3164 194.902 36.2148C194.34 35.1133 193.625 34.1523 192.758 33.332C191.891 32.5117 190.848 31.8672 189.629 31.3984C188.434 30.9062 187.016 30.6602 185.375 30.6602C183.875 30.6602 182.551 30.9062 181.402 31.3984C180.277 31.8672 179.293 32.5117 178.449 33.332C177.606 34.1523 176.902 35.1133 176.34 36.2148C175.777 37.3164 175.32 38.4883 174.969 39.7305C174.641 40.9492 174.406 42.2148 174.266 43.5273C174.125 44.8164 174.055 46.0703 174.055 47.2891C174.055 48.4844 174.125 49.7383 174.266 51.0508C174.406 52.3633 174.652 53.6523 175.004 54.918C175.356 56.1836 175.813 57.3906 176.375 58.5391C176.938 59.6875 177.641 60.6953 178.485 61.5625C179.328 62.4297 180.324 63.1211 181.473 63.6367C182.621 64.1523 183.945 64.4102 185.445 64.4102C187.016 64.4102 188.387 64.1758 189.559 63.707C190.754 63.2383 191.785 62.6055 192.652 61.8086C193.52 60.9883 194.235 60.0391 194.797 58.9609C195.383 57.8594 195.84 56.6992 196.168 55.4805C196.52 54.2383 196.766 52.9609 196.906 51.6484C197.047 50.3125 197.117 49 197.117 47.7109ZM251.619 30.5195C250.494 30.5195 249.592 30.5898 248.912 30.7305C248.233 30.8711 247.705 31.1406 247.33 31.5391C246.979 31.9141 246.744 32.4414 246.627 33.1211C246.533 33.8008 246.487 34.6797 246.487 35.7578V66.0625H245.572L221.807 37.1289V59.2422C221.807 60.3672 221.854 61.2695 221.947 61.9492C222.065 62.6289 222.299 63.1562 222.651 63.5312C223.002 63.9062 223.518 64.1641 224.197 64.3047C224.877 64.4219 225.78 64.4805 226.905 64.4805V65.5H214.389V64.4805C215.514 64.4805 216.405 64.4102 217.061 64.2695C217.74 64.1289 218.256 63.8711 218.608 63.4961C218.959 63.0977 219.194 62.5586 219.311 61.8789C219.428 61.1992 219.487 60.3203 219.487 59.2422V34.2461C219.041 33.6367 218.619 33.1094 218.221 32.6641C217.846 32.1953 217.436 31.8086 216.99 31.5039C216.569 31.1758 216.076 30.9297 215.514 30.7656C214.951 30.6016 214.26 30.5195 213.44 30.5195V29.5703H222.229L244.201 56.5V35.7578C244.201 34.6797 244.143 33.8008 244.026 33.1211C243.908 32.4414 243.662 31.9141 243.287 31.5391C242.936 31.1406 242.42 30.8711 241.74 30.7305C241.084 30.5898 240.194 30.5195 239.069 30.5195V29.5703H251.619V30.5195ZM288.543 39.5195C288.543 41.4648 288.203 43.082 287.524 44.3711C286.867 45.6367 285.965 46.6445 284.817 47.3945C283.668 48.1445 282.321 48.6719 280.774 48.9766C279.25 49.2812 277.633 49.4336 275.922 49.4336C275.172 49.4336 274.422 49.4219 273.672 49.3984C272.946 49.375 272.16 49.293 271.317 49.1523V59.1719C271.317 60.2734 271.375 61.1758 271.492 61.8789C271.633 62.5586 271.879 63.0977 272.231 63.4961C272.606 63.8711 273.133 64.1289 273.813 64.2695C274.492 64.4102 275.395 64.4805 276.52 64.4805V65.5H261.192V64.4805C262.317 64.4805 263.207 64.4102 263.864 64.2695C264.543 64.1289 265.059 63.8711 265.41 63.4961C265.762 63.0977 265.985 62.5586 266.078 61.8789C266.172 61.1758 266.219 60.2734 266.219 59.1719V35.8984C266.219 34.7734 266.172 33.8711 266.078 33.1914C265.985 32.4883 265.762 31.9375 265.41 31.5391C265.082 31.1406 264.578 30.8711 263.899 30.7305C263.242 30.5898 262.34 30.5195 261.192 30.5195V29.5703H274.27C275.887 29.5703 277.539 29.7109 279.227 29.9922C280.938 30.2734 282.473 30.7891 283.832 31.5391C285.215 32.2656 286.34 33.2734 287.207 34.5625C288.098 35.8516 288.543 37.5039 288.543 39.5195ZM282.496 40.0117C282.496 38.8633 282.321 37.7852 281.969 36.7773C281.641 35.7461 281.149 34.8555 280.492 34.1055C279.86 33.3555 279.063 32.7578 278.102 32.3125C277.164 31.8672 276.086 31.6445 274.867 31.6445C274.282 31.6445 273.684 31.7031 273.075 31.8203C272.489 31.9375 271.903 32.0547 271.317 32.1719V47.3594C272.043 47.4766 272.77 47.5703 273.496 47.6406C274.223 47.6875 274.961 47.7109 275.711 47.7109C276.766 47.7109 277.703 47.5 278.524 47.0781C279.367 46.6328 280.082 46.0586 280.668 45.3555C281.254 44.6289 281.7 43.8086 282.004 42.8945C282.332 41.957 282.496 40.9961 282.496 40.0117ZM327.26 65.5H299.346V64.4805C300.19 64.4805 300.94 64.4336 301.596 64.3398C302.252 64.2227 302.791 64.0117 303.213 63.707C303.659 63.3789 303.998 62.9219 304.233 62.3359C304.467 61.75 304.584 60.9766 304.584 60.0156V35.0547C304.584 34.1172 304.467 33.3555 304.233 32.7695C303.998 32.1836 303.659 31.7383 303.213 31.4336C302.791 31.1055 302.252 30.8828 301.596 30.7656C300.94 30.6484 300.19 30.5898 299.346 30.5898V29.5703H314.955V30.5898C314.088 30.5898 313.327 30.6484 312.67 30.7656C312.014 30.8828 311.463 31.1055 311.018 31.4336C310.573 31.7383 310.233 32.1836 309.998 32.7695C309.764 33.3555 309.647 34.1172 309.647 35.0547V58.7148C309.647 59.6055 309.717 60.3438 309.858 60.9297C309.998 61.4922 310.233 61.9492 310.561 62.3008C310.913 62.6289 311.381 62.8633 311.967 63.0039C312.553 63.1211 313.291 63.1797 314.182 63.1797H317.768C319.502 63.1797 320.955 63.0859 322.127 62.8984C323.299 62.6875 324.307 62.3125 325.151 61.7734C326.018 61.2109 326.78 60.4375 327.436 59.4531C328.092 58.4453 328.76 57.1445 329.44 55.5508L330.354 55.6914L327.26 65.5ZM376.454 47.3594C376.454 49.9141 376.032 52.3398 375.188 54.6367C374.344 56.9336 373.149 58.9609 371.602 60.7188C370.079 62.4531 368.227 63.8359 366.047 64.8672C363.891 65.875 361.477 66.3789 358.805 66.3789C356.133 66.3789 353.708 65.875 351.528 64.8672C349.372 63.8594 347.52 62.5 345.973 60.7891C344.45 59.0547 343.278 57.0391 342.458 54.7422C341.637 52.4453 341.227 50.0078 341.227 47.4297C341.227 44.8281 341.661 42.4023 342.528 40.1523C343.418 37.8789 344.661 35.9102 346.254 34.2461C347.848 32.5586 349.747 31.2344 351.95 30.2734C354.153 29.2891 356.579 28.7969 359.227 28.7969C361.829 28.7969 364.184 29.3008 366.293 30.3086C368.403 31.293 370.208 32.6406 371.708 34.3516C373.231 36.0391 374.403 38.0078 375.223 40.2578C376.043 42.5078 376.454 44.875 376.454 47.3594ZM370.407 47.7109C370.407 46.3984 370.336 45.0625 370.196 43.7031C370.079 42.3438 369.856 41.0312 369.528 39.7656C369.2 38.5 368.754 37.3164 368.192 36.2148C367.629 35.1133 366.915 34.1523 366.047 33.332C365.18 32.5117 364.137 31.8672 362.918 31.3984C361.723 30.9062 360.305 30.6602 358.665 30.6602C357.165 30.6602 355.84 30.9062 354.692 31.3984C353.567 31.8672 352.583 32.5117 351.739 33.332C350.895 34.1523 350.192 35.1133 349.629 36.2148C349.067 37.3164 348.61 38.4883 348.258 39.7305C347.93 40.9492 347.696 42.2148 347.555 43.5273C347.415 44.8164 347.344 46.0703 347.344 47.2891C347.344 48.4844 347.415 49.7383 347.555 51.0508C347.696 52.3633 347.942 53.6523 348.293 54.918C348.645 56.1836 349.102 57.3906 349.665 58.5391C350.227 59.6875 350.93 60.6953 351.774 61.5625C352.618 62.4297 353.614 63.1211 354.762 63.6367C355.911 64.1523 357.235 64.4102 358.735 64.4102C360.305 64.4102 361.676 64.1758 362.848 63.707C364.043 63.2383 365.075 62.6055 365.942 61.8086C366.809 60.9883 367.524 60.0391 368.086 58.9609C368.672 57.8594 369.129 56.6992 369.458 55.4805C369.809 54.2383 370.055 52.9609 370.196 51.6484C370.336 50.3125 370.407 49 370.407 47.7109ZM417.104 38.0078C416.893 35.9688 416.272 34.4336 415.241 33.4023C414.21 32.3477 412.628 31.8203 410.495 31.8203H405.467V59.2422C405.467 60.3438 405.514 61.2344 405.608 61.9141C405.702 62.5938 405.924 63.1328 406.276 63.5312C406.628 63.9062 407.131 64.1641 407.788 64.3047C408.467 64.4219 409.37 64.4805 410.495 64.4805V65.5H395.307V64.4805C396.432 64.4805 397.323 64.4102 397.979 64.2695C398.635 64.1289 399.139 63.8711 399.491 63.4961C399.842 63.0977 400.065 62.5586 400.159 61.8789C400.276 61.1992 400.335 60.3203 400.335 59.2422V31.8203H396.01C394.885 31.8203 393.901 31.9258 393.057 32.1367C392.213 32.3242 391.499 32.6523 390.913 33.1211C390.35 33.5898 389.905 34.2227 389.577 35.0195C389.272 35.8164 389.073 36.8125 388.979 38.0078H387.749L388.1 29.5703H417.913L418.264 38.0078H417.104Z" fill="url(#paint2_linear_7_12)" fill-opacity="0.69"/>
<path d="M112.934 65.5H85.0195V64.4805C85.8633 64.4805 86.6133 64.4336 87.2695 64.3398C87.9258 64.2227 88.4648 64.0117 88.8867 63.707C89.332 63.3789 89.6719 62.9219 89.9062 62.3359C90.1406 61.75 90.2578 60.9766 90.2578 60.0156V35.0547C90.2578 34.1172 90.1406 33.3555 89.9062 32.7695C89.6719 32.1836 89.332 31.7383 88.8867 31.4336C88.4648 31.1055 87.9258 30.8828 87.2695 30.7656C86.6133 30.6484 85.8633 30.5898 85.0195 30.5898V29.5703H100.629V30.5898C99.7617 30.5898 99 30.6484 98.3438 30.7656C97.6875 30.8828 97.1367 31.1055 96.6914 31.4336C96.2461 31.7383 95.9062 32.1836 95.6719 32.7695C95.4375 33.3555 95.3203 34.1172 95.3203 35.0547V58.7148C95.3203 59.6055 95.3906 60.3438 95.5312 60.9297C95.6719 61.4922 95.9062 61.9492 96.2344 62.3008C96.5859 62.6289 97.0547 62.8633 97.6406 63.0039C98.2266 63.1211 98.9648 63.1797 99.8555 63.1797H103.441C105.176 63.1797 106.629 63.0859 107.801 62.8984C108.973 62.6875 109.98 62.3125 110.824 61.7734C111.691 61.2109 112.453 60.4375 113.109 59.4531C113.766 58.4453 114.434 57.1445 115.113 55.5508L116.027 55.6914L112.934 65.5ZM153.83 65.5H126.197V64.4805C127.322 64.4805 128.213 64.4102 128.869 64.2695C129.549 64.1289 130.065 63.8711 130.416 63.4961C130.768 63.0977 131.002 62.5586 131.119 61.8789C131.236 61.1758 131.295 60.2734 131.295 59.1719V35.7578C131.295 34.6328 131.248 33.7305 131.154 33.0508C131.061 32.3711 130.838 31.8438 130.486 31.4688C130.135 31.0938 129.619 30.8477 128.94 30.7305C128.26 30.5898 127.346 30.5195 126.197 30.5195V29.5703H153.83L154.252 37.4102H153.268C152.963 36.2617 152.67 35.3125 152.389 34.5625C152.131 33.7891 151.768 33.1797 151.299 32.7344C150.854 32.2891 150.232 31.9727 149.436 31.7852C148.662 31.5977 147.607 31.5039 146.272 31.5039H136.357V45.707H144.268C145.369 45.707 146.248 45.6367 146.904 45.4961C147.584 45.332 148.123 45.0625 148.522 44.6875C148.943 44.2891 149.248 43.7617 149.436 43.1055C149.647 42.4258 149.822 41.5586 149.963 40.5039H150.947V53.0547H149.963C149.822 52 149.647 51.1328 149.436 50.4531C149.248 49.7734 148.955 49.2344 148.557 48.8359C148.158 48.4141 147.619 48.1211 146.94 47.957C146.283 47.793 145.393 47.7109 144.268 47.7109H136.357V59.5234C136.357 60.1797 136.369 60.7656 136.393 61.2812C136.44 61.7734 136.557 62.1953 136.744 62.5469C136.932 62.875 137.225 63.1328 137.623 63.3203C138.045 63.4844 138.631 63.5664 139.381 63.5664H145.428C146.998 63.5664 148.287 63.4375 149.295 63.1797C150.303 62.9219 151.17 62.5117 151.897 61.9492C152.647 61.3867 153.315 60.6602 153.9 59.7695C154.486 58.8555 155.143 57.7656 155.869 56.5H156.994L153.83 65.5ZM203.164 47.3594C203.164 49.9141 202.742 52.3398 201.899 54.6367C201.055 56.9336 199.86 58.9609 198.313 60.7188C196.789 62.4531 194.938 63.8359 192.758 64.8672C190.602 65.875 188.188 66.3789 185.516 66.3789C182.844 66.3789 180.418 65.875 178.238 64.8672C176.082 63.8594 174.231 62.5 172.684 60.7891C171.16 59.0547 169.988 57.0391 169.168 54.7422C168.348 52.4453 167.938 50.0078 167.938 47.4297C167.938 44.8281 168.371 42.4023 169.238 40.1523C170.129 37.8789 171.371 35.9102 172.965 34.2461C174.559 32.5586 176.457 31.2344 178.66 30.2734C180.863 29.2891 183.289 28.7969 185.938 28.7969C188.539 28.7969 190.895 29.3008 193.004 30.3086C195.113 31.293 196.918 32.6406 198.418 34.3516C199.942 36.0391 201.113 38.0078 201.934 40.2578C202.754 42.5078 203.164 44.875 203.164 47.3594ZM197.117 47.7109C197.117 46.3984 197.047 45.0625 196.906 43.7031C196.789 42.3438 196.567 41.0312 196.238 39.7656C195.91 38.5 195.465 37.3164 194.902 36.2148C194.34 35.1133 193.625 34.1523 192.758 33.332C191.891 32.5117 190.848 31.8672 189.629 31.3984C188.434 30.9062 187.016 30.6602 185.375 30.6602C183.875 30.6602 182.551 30.9062 181.402 31.3984C180.277 31.8672 179.293 32.5117 178.449 33.332C177.606 34.1523 176.902 35.1133 176.34 36.2148C175.777 37.3164 175.32 38.4883 174.969 39.7305C174.641 40.9492 174.406 42.2148 174.266 43.5273C174.125 44.8164 174.055 46.0703 174.055 47.2891C174.055 48.4844 174.125 49.7383 174.266 51.0508C174.406 52.3633 174.652 53.6523 175.004 54.918C175.356 56.1836 175.813 57.3906 176.375 58.5391C176.938 59.6875 177.641 60.6953 178.485 61.5625C179.328 62.4297 180.324 63.1211 181.473 63.6367C182.621 64.1523 183.945 64.4102 185.445 64.4102C187.016 64.4102 188.387 64.1758 189.559 63.707C190.754 63.2383 191.785 62.6055 192.652 61.8086C193.52 60.9883 194.235 60.0391 194.797 58.9609C195.383 57.8594 195.84 56.6992 196.168 55.4805C196.52 54.2383 196.766 52.9609 196.906 51.6484C197.047 50.3125 197.117 49 197.117 47.7109ZM251.619 30.5195C250.494 30.5195 249.592 30.5898 248.912 30.7305C248.233 30.8711 247.705 31.1406 247.33 31.5391C246.979 31.9141 246.744 32.4414 246.627 33.1211C246.533 33.8008 246.487 34.6797 246.487 35.7578V66.0625H245.572L221.807 37.1289V59.2422C221.807 60.3672 221.854 61.2695 221.947 61.9492C222.065 62.6289 222.299 63.1562 222.651 63.5312C223.002 63.9062 223.518 64.1641 224.197 64.3047C224.877 64.4219 225.78 64.4805 226.905 64.4805V65.5H214.389V64.4805C215.514 64.4805 216.405 64.4102 217.061 64.2695C217.74 64.1289 218.256 63.8711 218.608 63.4961C218.959 63.0977 219.194 62.5586 219.311 61.8789C219.428 61.1992 219.487 60.3203 219.487 59.2422V34.2461C219.041 33.6367 218.619 33.1094 218.221 32.6641C217.846 32.1953 217.436 31.8086 216.99 31.5039C216.569 31.1758 216.076 30.9297 215.514 30.7656C214.951 30.6016 214.26 30.5195 213.44 30.5195V29.5703H222.229L244.201 56.5V35.7578C244.201 34.6797 244.143 33.8008 244.026 33.1211C243.908 32.4414 243.662 31.9141 243.287 31.5391C242.936 31.1406 242.42 30.8711 241.74 30.7305C241.084 30.5898 240.194 30.5195 239.069 30.5195V29.5703H251.619V30.5195ZM288.543 39.5195C288.543 41.4648 288.203 43.082 287.524 44.3711C286.867 45.6367 285.965 46.6445 284.817 47.3945C283.668 48.1445 282.321 48.6719 280.774 48.9766C279.25 49.2812 277.633 49.4336 275.922 49.4336C275.172 49.4336 274.422 49.4219 273.672 49.3984C272.946 49.375 272.16 49.293 271.317 49.1523V59.1719C271.317 60.2734 271.375 61.1758 271.492 61.8789C271.633 62.5586 271.879 63.0977 272.231 63.4961C272.606 63.8711 273.133 64.1289 273.813 64.2695C274.492 64.4102 275.395 64.4805 276.52 64.4805V65.5H261.192V64.4805C262.317 64.4805 263.207 64.4102 263.864 64.2695C264.543 64.1289 265.059 63.8711 265.41 63.4961C265.762 63.0977 265.985 62.5586 266.078 61.8789C266.172 61.1758 266.219 60.2734 266.219 59.1719V35.8984C266.219 34.7734 266.172 33.8711 266.078 33.1914C265.985 32.4883 265.762 31.9375 265.41 31.5391C265.082 31.1406 264.578 30.8711 263.899 30.7305C263.242 30.5898 262.34 30.5195 261.192 30.5195V29.5703H274.27C275.887 29.5703 277.539 29.7109 279.227 29.9922C280.938 30.2734 282.473 30.7891 283.832 31.5391C285.215 32.2656 286.34 33.2734 287.207 34.5625C288.098 35.8516 288.543 37.5039 288.543 39.5195ZM282.496 40.0117C282.496 38.8633 282.321 37.7852 281.969 36.7773C281.641 35.7461 281.149 34.8555 280.492 34.1055C279.86 33.3555 279.063 32.7578 278.102 32.3125C277.164 31.8672 276.086 31.6445 274.867 31.6445C274.282 31.6445 273.684 31.7031 273.075 31.8203C272.489 31.9375 271.903 32.0547 271.317 32.1719V47.3594C272.043 47.4766 272.77 47.5703 273.496 47.6406C274.223 47.6875 274.961 47.7109 275.711 47.7109C276.766 47.7109 277.703 47.5 278.524 47.0781C279.367 46.6328 280.082 46.0586 280.668 45.3555C281.254 44.6289 281.7 43.8086 282.004 42.8945C282.332 41.957 282.496 40.9961 282.496 40.0117ZM327.26 65.5H299.346V64.4805C300.19 64.4805 300.94 64.4336 301.596 64.3398C302.252 64.2227 302.791 64.0117 303.213 63.707C303.659 63.3789 303.998 62.9219 304.233 62.3359C304.467 61.75 304.584 60.9766 304.584 60.0156V35.0547C304.584 34.1172 304.467 33.3555 304.233 32.7695C303.998 32.1836 303.659 31.7383 303.213 31.4336C302.791 31.1055 302.252 30.8828 301.596 30.7656C300.94 30.6484 300.19 30.5898 299.346 30.5898V29.5703H314.955V30.5898C314.088 30.5898 313.327 30.6484 312.67 30.7656C312.014 30.8828 311.463 31.1055 311.018 31.4336C310.573 31.7383 310.233 32.1836 309.998 32.7695C309.764 33.3555 309.647 34.1172 309.647 35.0547V58.7148C309.647 59.6055 309.717 60.3438 309.858 60.9297C309.998 61.4922 310.233 61.9492 310.561 62.3008C310.913 62.6289 311.381 62.8633 311.967 63.0039C312.553 63.1211 313.291 63.1797 314.182 63.1797H317.768C319.502 63.1797 320.955 63.0859 322.127 62.8984C323.299 62.6875 324.307 62.3125 325.151 61.7734C326.018 61.2109 326.78 60.4375 327.436 59.4531C328.092 58.4453 328.76 57.1445 329.44 55.5508L330.354 55.6914L327.26 65.5ZM376.454 47.3594C376.454 49.9141 376.032 52.3398 375.188 54.6367C374.344 56.9336 373.149 58.9609 371.602 60.7188C370.079 62.4531 368.227 63.8359 366.047 64.8672C363.891 65.875 361.477 66.3789 358.805 66.3789C356.133 66.3789 353.708 65.875 351.528 64.8672C349.372 63.8594 347.52 62.5 345.973 60.7891C344.45 59.0547 343.278 57.0391 342.458 54.7422C341.637 52.4453 341.227 50.0078 341.227 47.4297C341.227 44.8281 341.661 42.4023 342.528 40.1523C343.418 37.8789 344.661 35.9102 346.254 34.2461C347.848 32.5586 349.747 31.2344 351.95 30.2734C354.153 29.2891 356.579 28.7969 359.227 28.7969C361.829 28.7969 364.184 29.3008 366.293 30.3086C368.403 31.293 370.208 32.6406 371.708 34.3516C373.231 36.0391 374.403 38.0078 375.223 40.2578C376.043 42.5078 376.454 44.875 376.454 47.3594ZM370.407 47.7109C370.407 46.3984 370.336 45.0625 370.196 43.7031C370.079 42.3438 369.856 41.0312 369.528 39.7656C369.2 38.5 368.754 37.3164 368.192 36.2148C367.629 35.1133 366.915 34.1523 366.047 33.332C365.18 32.5117 364.137 31.8672 362.918 31.3984C361.723 30.9062 360.305 30.6602 358.665 30.6602C357.165 30.6602 355.84 30.9062 354.692 31.3984C353.567 31.8672 352.583 32.5117 351.739 33.332C350.895 34.1523 350.192 35.1133 349.629 36.2148C349.067 37.3164 348.61 38.4883 348.258 39.7305C347.93 40.9492 347.696 42.2148 347.555 43.5273C347.415 44.8164 347.344 46.0703 347.344 47.2891C347.344 48.4844 347.415 49.7383 347.555 51.0508C347.696 52.3633 347.942 53.6523 348.293 54.918C348.645 56.1836 349.102 57.3906 349.665 58.5391C350.227 59.6875 350.93 60.6953 351.774 61.5625C352.618 62.4297 353.614 63.1211 354.762 63.6367C355.911 64.1523 357.235 64.4102 358.735 64.4102C360.305 64.4102 361.676 64.1758 362.848 63.707C364.043 63.2383 365.075 62.6055 365.942 61.8086C366.809 60.9883 367.524 60.0391 368.086 58.9609C368.672 57.8594 369.129 56.6992 369.458 55.4805C369.809 54.2383 370.055 52.9609 370.196 51.6484C370.336 50.3125 370.407 49 370.407 47.7109ZM417.104 38.0078C416.893 35.9688 416.272 34.4336 415.241 33.4023C414.21 32.3477 412.628 31.8203 410.495 31.8203H405.467V59.2422C405.467 60.3438 405.514 61.2344 405.608 61.9141C405.702 62.5938 405.924 63.1328 406.276 63.5312C406.628 63.9062 407.131 64.1641 407.788 64.3047C408.467 64.4219 409.37 64.4805 410.495 64.4805V65.5H395.307V64.4805C396.432 64.4805 397.323 64.4102 397.979 64.2695C398.635 64.1289 399.139 63.8711 399.491 63.4961C399.842 63.0977 400.065 62.5586 400.159 61.8789C400.276 61.1992 400.335 60.3203 400.335 59.2422V31.8203H396.01C394.885 31.8203 393.901 31.9258 393.057 32.1367C392.213 32.3242 391.499 32.6523 390.913 33.1211C390.35 33.5898 389.905 34.2227 389.577 35.0195C389.272 35.8164 389.073 36.8125 388.979 38.0078H387.749L388.1 29.5703H417.913L418.264 38.0078H417.104Z" fill="black" fill-opacity="0.2"/>
</g>
<defs>
<filter id="filter0_d_7_12" x="0" y="0" width="488" height="102" filterUnits="userSpaceOnUse" color-interpolation-filters="sRGB">
<feFlood flood-opacity="0" result="BackgroundImageFix"/>
<feColorMatrix in="SourceAlpha" type="matrix" values="0 0 0 0 0 0 0 0 0 0 0 0 0 0 0 0 0 0 127 0" result="hardAlpha"/>
<feOffset dy="4"/>
<feGaussianBlur stdDeviation="2"/>
<feComposite in2="hardAlpha" operator="out"/>
<feColorMatrix type="matrix" values="0 0 0 0 0 0 0 0 0 0 0 0 0 0 0 0 0 0 0.25 0"/>
<feBlend mode="luminosity" in2="BackgroundImageFix" result="effect1_dropShadow_7_12"/>
<feBlend mode="normal" in="SourceGraphic" in2="effect1_dropShadow_7_12" result="shape"/>
</filter>
<linearGradient id="paint0_linear_7_12" x1="4" y1="43.1076" x2="35.0294" y2="43.1076" gradientUnits="userSpaceOnUse">
<stop stop-color="#F9F295" stop-opacity="0.46"/>
<stop offset="0.333333" stop-color="#E0AA3E" stop-opacity="0.46"/>
<stop offset="0.66" stop-color="#F3C264"/>
<stop offset="1" stop-color="#EFC531" stop-opacity="0.32"/>
</linearGradient>
<linearGradient id="paint1_linear_7_12" x1="31.5113" y1="49.9551" x2="65.2701" y2="49.9551" gradientUnits="userSpaceOnUse">
<stop stop-color="#F9F295" stop-opacity="0.46"/>
<stop offset="0.333333" stop-color="#E0AA3E" stop-opacity="0.46"/>
<stop offset="0.66" stop-color="#F3C264"/>
<stop offset="1" stop-color="#EFC531" stop-opacity="0.32"/>
</linearGradient>
<linearGradient id="paint2_linear_7_12" x1="84" y1="47" x2="410.589" y2="47" gradientUnits="userSpaceOnUse">
<stop stop-color="#F9F295" stop-opacity="0.46"/>
<stop offset="0.333333" stop-color="#E0AA3E" stop-opacity="0.46"/>
<stop offset="0.66" stop-color="#F3C264"/>
<stop offset="1" stop-color="#EFC531" stop-opacity="0.32"/>
</linearGradient>
</defs>
</svg>
