<svg width="64" height="64" viewBox="0 0 64 64" fill="none" xmlns="http://www.w3.org/2000/svg">
<path d="M9.61993 0.0422783C9.61993 0.0676079 9.61089 0.64175 9.61089 1.32566V1.35435C9.61089 2.03668 10.149 2.59761 10.8308 2.62592C12.2223 2.69347 12.7102 2.84545 13.0084 3.30983C13.1892 3.58001 13.1892 3.79109 13.2163 12.4961C13.2434 21.8006 13.2434 21.8006 12.8548 22.2903C12.6108 22.6027 12.2042 22.704 10.8127 22.7631C10.1437 22.796 9.62238 23.3555 9.63681 24.0252L9.638 24.0803C9.65306 24.7748 10.2204 25.3299 10.915 25.3299H18.1861C22.8667 25.3299 26.698 25.3637 26.698 25.3974C26.698 25.4312 26.4811 25.7014 26.2281 26.0053C25.3968 26.951 23.6619 28.952 22.3788 30.4212C21.7011 31.198 21.0415 31.9578 20.9149 32.1098C20.6439 32.4476 19.0897 34.2206 19.0174 34.2797C18.9903 34.3051 18.6559 34.685 18.2855 35.1241C17.906 35.5631 16.7313 36.914 15.6831 38.1214C14.6259 39.3288 13.4964 40.6291 13.162 41.0175C12.8277 41.4059 11.9512 42.4106 11.2193 43.2549C10.4874 44.0993 9.59282 45.1294 9.23138 45.5431C8.86994 45.9568 8.27356 46.6407 7.90308 47.0713C7.53261 47.5019 6.73744 48.4138 6.14106 49.1061C5.54468 49.79 4.91216 50.5162 4.74048 50.7104C4.5688 50.9046 4.36097 51.1325 4.28868 51.217C2.98749 52.7283 2.50858 53.2771 1.91221 53.9526C0.909209 55.0755 0.954389 55.0333 0.421264 55.6666C-0.111861 56.2914 -0.138969 56.3758 0.33994 55.9536C0.864029 55.4977 4.26157 52.4497 5.41818 51.4111C6.01456 50.8708 6.99045 50.0011 7.58682 49.4692C8.1832 48.9373 9.13198 48.0845 9.71029 47.561C10.2796 47.046 10.8759 46.514 11.0205 46.3874C11.1741 46.2692 11.7434 45.7626 12.2856 45.2644C12.8367 44.7747 14.156 43.5927 15.2223 42.6386C17.8337 40.3082 19.2252 39.0586 20.418 37.9779C20.9601 37.4882 21.5113 36.9985 21.6378 36.8972C21.7643 36.7958 22.3336 36.2892 22.9029 35.7742C23.8517 34.913 26.1107 32.8866 28.6317 30.6407C29.1739 30.1594 30.1136 29.3151 30.71 28.7747L31.5823 27.9866C31.6996 27.8806 31.6973 27.6957 31.5774 27.5927C31.4509 27.4829 30.9178 27.0354 30.4028 26.5879C29.8787 26.1404 29.3636 25.7098 29.2552 25.617C28.948 25.389 29.0022 25.3299 29.463 25.3637C29.9239 25.3974 29.9419 25.389 30.5293 24.7135C30.7552 24.4518 30.9449 24.3167 31.0353 24.342C31.1528 24.3673 31.3967 23.7425 32.3726 20.8296C33.0322 18.8792 33.5563 17.275 33.5383 17.2581C33.5112 17.2328 32.5624 17.0808 31.3425 16.9204C31.1275 16.8903 30.918 17.0035 30.8254 17.1998L30.5112 17.866C29.2913 20.4412 28.2432 21.4206 26.3275 21.7584C25.189 21.961 19.93 21.9695 19.4601 21.7753C18.8096 21.4966 18.8367 21.8766 18.8367 12.4201C18.8367 7.79321 18.8728 3.86708 18.918 3.68977C18.9632 3.50402 19.0987 3.26761 19.2162 3.1494C19.5776 2.7779 19.9662 2.68502 21.3035 2.63437C21.9939 2.61082 22.5414 2.04431 22.5414 1.35349V1.30033C22.5414 0.582211 21.9593 6.10352e-05 21.2412 6.10352e-05H16.0807C12.5295 6.10352e-05 9.61993 0.0169487 9.61993 0.0422783Z" fill="#E9CF8C"/>
<path d="M9.61993 0.0422783C9.61993 0.0676079 9.61089 0.64175 9.61089 1.32566V1.35435C9.61089 2.03668 10.149 2.59761 10.8308 2.62592C12.2223 2.69347 12.7102 2.84545 13.0084 3.30983C13.1892 3.58001 13.1892 3.79109 13.2163 12.4961C13.2434 21.8006 13.2434 21.8006 12.8548 22.2903C12.6108 22.6027 12.2042 22.704 10.8127 22.7631C10.1437 22.796 9.62238 23.3555 9.63681 24.0252L9.638 24.0803C9.65306 24.7748 10.2204 25.3299 10.915 25.3299H18.1861C22.8667 25.3299 26.698 25.3637 26.698 25.3974C26.698 25.4312 26.4811 25.7014 26.2281 26.0053C25.3968 26.951 23.6619 28.952 22.3788 30.4212C21.7011 31.198 21.0415 31.9578 20.9149 32.1098C20.6439 32.4476 19.0897 34.2206 19.0174 34.2797C18.9903 34.3051 18.6559 34.685 18.2855 35.1241C17.906 35.5631 16.7313 36.914 15.6831 38.1214C14.6259 39.3288 13.4964 40.6291 13.162 41.0175C12.8277 41.4059 11.9512 42.4106 11.2193 43.2549C10.4874 44.0993 9.59282 45.1294 9.23138 45.5431C8.86994 45.9568 8.27356 46.6407 7.90308 47.0713C7.53261 47.5019 6.73744 48.4138 6.14106 49.1061C5.54468 49.79 4.91216 50.5162 4.74048 50.7104C4.5688 50.9046 4.36097 51.1325 4.28868 51.217C2.98749 52.7283 2.50858 53.2771 1.91221 53.9526C0.909209 55.0755 0.954389 55.0333 0.421264 55.6666C-0.111861 56.2914 -0.138969 56.3758 0.33994 55.9536C0.864029 55.4977 4.26157 52.4497 5.41818 51.4111C6.01456 50.8708 6.99045 50.0011 7.58682 49.4692C8.1832 48.9373 9.13198 48.0845 9.71029 47.561C10.2796 47.046 10.8759 46.514 11.0205 46.3874C11.1741 46.2692 11.7434 45.7626 12.2856 45.2644C12.8367 44.7747 14.156 43.5927 15.2223 42.6386C17.8337 40.3082 19.2252 39.0586 20.418 37.9779C20.9601 37.4882 21.5113 36.9985 21.6378 36.8972C21.7643 36.7958 22.3336 36.2892 22.9029 35.7742C23.8517 34.913 26.1107 32.8866 28.6317 30.6407C29.1739 30.1594 30.1136 29.3151 30.71 28.7747L31.5823 27.9866C31.6996 27.8806 31.6973 27.6957 31.5774 27.5927C31.4509 27.4829 30.9178 27.0354 30.4028 26.5879C29.8787 26.1404 29.3636 25.7098 29.2552 25.617C28.948 25.389 29.0022 25.3299 29.463 25.3637C29.9239 25.3974 29.9419 25.389 30.5293 24.7135C30.7552 24.4518 30.9449 24.3167 31.0353 24.342C31.1528 24.3673 31.3967 23.7425 32.3726 20.8296C33.0322 18.8792 33.5563 17.275 33.5383 17.2581C33.5112 17.2328 32.5624 17.0808 31.3425 16.9204C31.1275 16.8903 30.918 17.0035 30.8254 17.1998L30.5112 17.866C29.2913 20.4412 28.2432 21.4206 26.3275 21.7584C25.189 21.961 19.93 21.9695 19.4601 21.7753C18.8096 21.4966 18.8367 21.8766 18.8367 12.4201C18.8367 7.79321 18.8728 3.86708 18.918 3.68977C18.9632 3.50402 19.0987 3.26761 19.2162 3.1494C19.5776 2.7779 19.9662 2.68502 21.3035 2.63437C21.9939 2.61082 22.5414 2.04431 22.5414 1.35349V1.30033C22.5414 0.582211 21.9593 6.10352e-05 21.2412 6.10352e-05H16.0807C12.5295 6.10352e-05 9.61993 0.0169487 9.61993 0.0422783Z" fill="url(#paint0_linear_7_13)" fill-opacity="0.69"/>
<path d="M9.61993 0.0422783C9.61993 0.0676079 9.61089 0.64175 9.61089 1.32566V1.35435C9.61089 2.03668 10.149 2.59761 10.8308 2.62592C12.2223 2.69347 12.7102 2.84545 13.0084 3.30983C13.1892 3.58001 13.1892 3.79109 13.2163 12.4961C13.2434 21.8006 13.2434 21.8006 12.8548 22.2903C12.6108 22.6027 12.2042 22.704 10.8127 22.7631C10.1437 22.796 9.62238 23.3555 9.63681 24.0252L9.638 24.0803C9.65306 24.7748 10.2204 25.3299 10.915 25.3299H18.1861C22.8667 25.3299 26.698 25.3637 26.698 25.3974C26.698 25.4312 26.4811 25.7014 26.2281 26.0053C25.3968 26.951 23.6619 28.952 22.3788 30.4212C21.7011 31.198 21.0415 31.9578 20.9149 32.1098C20.6439 32.4476 19.0897 34.2206 19.0174 34.2797C18.9903 34.3051 18.6559 34.685 18.2855 35.1241C17.906 35.5631 16.7313 36.914 15.6831 38.1214C14.6259 39.3288 13.4964 40.6291 13.162 41.0175C12.8277 41.4059 11.9512 42.4106 11.2193 43.2549C10.4874 44.0993 9.59282 45.1294 9.23138 45.5431C8.86994 45.9568 8.27356 46.6407 7.90308 47.0713C7.53261 47.5019 6.73744 48.4138 6.14106 49.1061C5.54468 49.79 4.91216 50.5162 4.74048 50.7104C4.5688 50.9046 4.36097 51.1325 4.28868 51.217C2.98749 52.7283 2.50858 53.2771 1.91221 53.9526C0.909209 55.0755 0.954389 55.0333 0.421264 55.6666C-0.111861 56.2914 -0.138969 56.3758 0.33994 55.9536C0.864029 55.4977 4.26157 52.4497 5.41818 51.4111C6.01456 50.8708 6.99045 50.0011 7.58682 49.4692C8.1832 48.9373 9.13198 48.0845 9.71029 47.561C10.2796 47.046 10.8759 46.514 11.0205 46.3874C11.1741 46.2692 11.7434 45.7626 12.2856 45.2644C12.8367 44.7747 14.156 43.5927 15.2223 42.6386C17.8337 40.3082 19.2252 39.0586 20.418 37.9779C20.9601 37.4882 21.5113 36.9985 21.6378 36.8972C21.7643 36.7958 22.3336 36.2892 22.9029 35.7742C23.8517 34.913 26.1107 32.8866 28.6317 30.6407C29.1739 30.1594 30.1136 29.3151 30.71 28.7747L31.5823 27.9866C31.6996 27.8806 31.6973 27.6957 31.5774 27.5927C31.4509 27.4829 30.9178 27.0354 30.4028 26.5879C29.8787 26.1404 29.3636 25.7098 29.2552 25.617C28.948 25.389 29.0022 25.3299 29.463 25.3637C29.9239 25.3974 29.9419 25.389 30.5293 24.7135C30.7552 24.4518 30.9449 24.3167 31.0353 24.342C31.1528 24.3673 31.3967 23.7425 32.3726 20.8296C33.0322 18.8792 33.5563 17.275 33.5383 17.2581C33.5112 17.2328 32.5624 17.0808 31.3425 16.9204C31.1275 16.8903 30.918 17.0035 30.8254 17.1998L30.5112 17.866C29.2913 20.4412 28.2432 21.4206 26.3275 21.7584C25.189 21.961 19.93 21.9695 19.4601 21.7753C18.8096 21.4966 18.8367 21.8766 18.8367 12.4201C18.8367 7.79321 18.8728 3.86708 18.918 3.68977C18.9632 3.50402 19.0987 3.26761 19.2162 3.1494C19.5776 2.7779 19.9662 2.68502 21.3035 2.63437C21.9939 2.61082 22.5414 2.04431 22.5414 1.35349V1.30033C22.5414 0.582211 21.9593 6.10352e-05 21.2412 6.10352e-05H16.0807C12.5295 6.10352e-05 9.61993 0.0169487 9.61993 0.0422783Z" fill="black" fill-opacity="0.2"/>
<path d="M63.7457 6.08759C63.6192 6.18891 63.1313 6.59419 62.6614 6.99947C61.4144 8.06332 59.5259 9.66754 57.8813 11.0522C57.4928 11.3815 56.7789 11.9894 56.2006 12.4876C55.9025 12.7493 55.2519 13.3066 54.7549 13.7288C52.2338 15.8733 51.52 16.4728 50.7339 17.1314C49.4056 18.2459 48.6646 18.9636 47.8333 19.9261C47.4086 20.4158 46.8032 21.1166 46.4779 21.4881C44.8604 23.3456 42.5924 25.9546 42.0683 26.5541C41.743 26.9256 41.4177 27.2971 41.3364 27.39C41.2641 27.4744 41.0563 27.7108 40.8846 27.905C40.7129 28.0992 40.4418 28.4116 40.2882 28.5889C40.1346 28.7747 39.4117 29.6021 38.6798 30.438C37.0353 32.3208 36.8094 32.5741 33.0594 36.8971C31.3877 38.8222 29.6709 40.7979 29.2372 41.2876C27.6649 43.0607 27.5113 43.2464 27.5113 43.3478C27.5113 43.4322 29.5263 45.2728 29.6709 45.315C29.698 45.3235 30.0685 44.9351 30.4932 44.4454C30.9179 43.9557 31.4962 43.2802 31.7853 42.9509C32.0745 42.6132 32.3817 42.267 32.463 42.1741C32.5444 42.0813 32.8696 41.7098 33.1859 41.3467C33.5022 40.9921 33.7913 40.6966 33.8365 40.6966C33.8817 40.6966 33.9269 40.8232 33.9449 40.9668C33.9605 41.1264 34.0915 41.25 34.2518 41.2563L35.0564 41.2876C36.0955 41.3298 36.1678 41.3467 36.6015 41.6084C37.0081 41.8449 37.5051 42.3177 37.8846 42.8158C37.975 42.934 37.9931 44.724 37.975 51.6475C37.9479 61.0364 37.966 60.6565 37.4599 60.876C37.2702 60.9604 35.6889 61.104 34.7582 61.1293C34.6441 61.1293 34.5524 61.2231 34.5549 61.3371L34.5775 62.3704C34.5925 63.0649 35.1598 63.6201 35.8545 63.6201H39.8455H43.8367C44.5269 63.6201 45.0863 63.0606 45.0863 62.3704V62.3327C45.0863 61.6534 44.5456 61.0974 43.8665 61.0786C42.3394 61.028 41.9328 60.9098 41.7701 60.4707C41.6436 60.0992 41.5442 47.2823 41.6798 47.2823C41.7249 47.2823 41.978 47.5356 42.249 47.848C42.5201 48.1604 43.3514 49.1061 44.0924 49.9504C44.8424 50.7947 46.1436 52.2723 46.9839 53.2348C48.7098 55.2021 50.7248 57.4902 52.4417 59.4406C53.0742 60.1583 54.2308 61.4839 55.0169 62.3704L55.7658 63.2252C56.1972 63.7176 56.8201 64 57.4747 64C58.0391 64 58.4969 63.5433 58.4983 62.9789L58.5229 53.1335C58.55 44.6818 58.5862 42.191 58.6675 41.9462C58.8572 41.4311 59.1374 41.3467 60.7006 41.3045L60.7712 41.3027C61.4709 41.2849 62.0289 40.7126 62.0289 40.0127C62.0289 39.3179 61.4656 38.7546 60.7708 38.7546H56.7428H52.6892C52.0079 38.7546 51.4599 39.3147 51.4748 39.9958C51.49 40.6963 52.0508 41.2625 52.7512 41.2843L52.8573 41.2876C54.6374 41.3551 54.7368 41.4142 54.8904 42.495C54.9989 43.2633 55.0079 54.1214 54.8995 54.1214C54.8633 54.1214 54.0772 53.2602 53.1645 52.2047C52.2519 51.1578 51.1947 49.9504 50.8242 49.5282C50.4447 49.1061 49.7037 48.2533 49.1616 47.6369C48.023 46.3198 47.9869 46.2776 47.5712 45.8047C47.011 45.1715 46.1887 44.2259 45.2219 43.1113C44.6978 42.5203 43.9478 41.6591 43.5502 41.2032C43.1526 40.7557 42.5111 40.0211 42.1225 39.5736C41.6748 39.0533 41.0237 38.7524 40.3372 38.7485L38.4449 38.7377L37.3237 38.7282C36.5972 38.722 36.2133 37.8658 36.6919 37.3193C37.3605 36.5509 38.4629 35.2929 39.1226 34.5245C39.7912 33.7478 40.3876 33.0638 40.4509 33.0047C40.5141 32.9372 40.7129 32.7177 40.8846 32.5066C41.0563 32.2955 41.2189 32.1098 41.246 32.0844C41.2731 32.0591 41.5352 31.7551 41.8334 31.409C42.1316 31.0628 42.4207 30.7335 42.4659 30.6828C42.5201 30.6322 42.8454 30.2522 43.2069 29.8385C43.5683 29.4248 44.8876 27.905 46.1436 26.4697C48.2851 24.0042 49.1254 23.0417 51.3212 20.5087C51.8182 19.9346 52.6224 19.0058 53.1194 18.4485C54.041 17.4016 57.8994 12.9604 59.4084 11.2211C59.8783 10.6807 60.5921 9.86174 60.9897 9.39735C62.6404 7.51683 63.4748 6.55744 63.8125 6.15312C63.943 5.9969 63.9098 5.96713 63.7457 6.08759Z" fill="#E9CF8C"/>
<path d="M63.7457 6.08759C63.6192 6.18891 63.1313 6.59419 62.6614 6.99947C61.4144 8.06332 59.5259 9.66754 57.8813 11.0522C57.4928 11.3815 56.7789 11.9894 56.2006 12.4876C55.9025 12.7493 55.2519 13.3066 54.7549 13.7288C52.2338 15.8733 51.52 16.4728 50.7339 17.1314C49.4056 18.2459 48.6646 18.9636 47.8333 19.9261C47.4086 20.4158 46.8032 21.1166 46.4779 21.4881C44.8604 23.3456 42.5924 25.9546 42.0683 26.5541C41.743 26.9256 41.4177 27.2971 41.3364 27.39C41.2641 27.4744 41.0563 27.7108 40.8846 27.905C40.7129 28.0992 40.4418 28.4116 40.2882 28.5889C40.1346 28.7747 39.4117 29.6021 38.6798 30.438C37.0353 32.3208 36.8094 32.5741 33.0594 36.8971C31.3877 38.8222 29.6709 40.7979 29.2372 41.2876C27.6649 43.0607 27.5113 43.2464 27.5113 43.3478C27.5113 43.4322 29.5263 45.2728 29.6709 45.315C29.698 45.3235 30.0685 44.9351 30.4932 44.4454C30.9179 43.9557 31.4962 43.2802 31.7853 42.9509C32.0745 42.6132 32.3817 42.267 32.463 42.1741C32.5444 42.0813 32.8696 41.7098 33.1859 41.3467C33.5022 40.9921 33.7913 40.6966 33.8365 40.6966C33.8817 40.6966 33.9269 40.8232 33.9449 40.9668C33.9605 41.1264 34.0915 41.25 34.2518 41.2563L35.0564 41.2876C36.0955 41.3298 36.1678 41.3467 36.6015 41.6084C37.0081 41.8449 37.5051 42.3177 37.8846 42.8158C37.975 42.934 37.9931 44.724 37.975 51.6475C37.9479 61.0364 37.966 60.6565 37.4599 60.876C37.2702 60.9604 35.6889 61.104 34.7582 61.1293C34.6441 61.1293 34.5524 61.2231 34.5549 61.3371L34.5775 62.3704C34.5925 63.0649 35.1598 63.6201 35.8545 63.6201H39.8455H43.8367C44.5269 63.6201 45.0863 63.0606 45.0863 62.3704V62.3327C45.0863 61.6534 44.5456 61.0974 43.8665 61.0786C42.3394 61.028 41.9328 60.9098 41.7701 60.4707C41.6436 60.0992 41.5442 47.2823 41.6798 47.2823C41.7249 47.2823 41.978 47.5356 42.249 47.848C42.5201 48.1604 43.3514 49.1061 44.0924 49.9504C44.8424 50.7947 46.1436 52.2723 46.9839 53.2348C48.7098 55.2021 50.7248 57.4902 52.4417 59.4406C53.0742 60.1583 54.2308 61.4839 55.0169 62.3704L55.7658 63.2252C56.1972 63.7176 56.8201 64 57.4747 64C58.0391 64 58.4969 63.5433 58.4983 62.9789L58.5229 53.1335C58.55 44.6818 58.5862 42.191 58.6675 41.9462C58.8572 41.4311 59.1374 41.3467 60.7006 41.3045L60.7712 41.3027C61.4709 41.2849 62.0289 40.7126 62.0289 40.0127C62.0289 39.3179 61.4656 38.7546 60.7708 38.7546H56.7428H52.6892C52.0079 38.7546 51.4599 39.3147 51.4748 39.9958C51.49 40.6963 52.0508 41.2625 52.7512 41.2843L52.8573 41.2876C54.6374 41.3551 54.7368 41.4142 54.8904 42.495C54.9989 43.2633 55.0079 54.1214 54.8995 54.1214C54.8633 54.1214 54.0772 53.2602 53.1645 52.2047C52.2519 51.1578 51.1947 49.9504 50.8242 49.5282C50.4447 49.1061 49.7037 48.2533 49.1616 47.6369C48.023 46.3198 47.9869 46.2776 47.5712 45.8047C47.011 45.1715 46.1887 44.2259 45.2219 43.1113C44.6978 42.5203 43.9478 41.6591 43.5502 41.2032C43.1526 40.7557 42.5111 40.0211 42.1225 39.5736C41.6748 39.0533 41.0237 38.7524 40.3372 38.7485L38.4449 38.7377L37.3237 38.7282C36.5972 38.722 36.2133 37.8658 36.6919 37.3193C37.3605 36.5509 38.4629 35.2929 39.1226 34.5245C39.7912 33.7478 40.3876 33.0638 40.4509 33.0047C40.5141 32.9372 40.7129 32.7177 40.8846 32.5066C41.0563 32.2955 41.2189 32.1098 41.246 32.0844C41.2731 32.0591 41.5352 31.7551 41.8334 31.409C42.1316 31.0628 42.4207 30.7335 42.4659 30.6828C42.5201 30.6322 42.8454 30.2522 43.2069 29.8385C43.5683 29.4248 44.8876 27.905 46.1436 26.4697C48.2851 24.0042 49.1254 23.0417 51.3212 20.5087C51.8182 19.9346 52.6224 19.0058 53.1194 18.4485C54.041 17.4016 57.8994 12.9604 59.4084 11.2211C59.8783 10.6807 60.5921 9.86174 60.9897 9.39735C62.6404 7.51683 63.4748 6.55744 63.8125 6.15312C63.943 5.9969 63.9098 5.96713 63.7457 6.08759Z" fill="url(#paint1_linear_7_13)" fill-opacity="0.69"/>
<path d="M63.7457 6.08759C63.6192 6.18891 63.1313 6.59419 62.6614 6.99947C61.4144 8.06332 59.5259 9.66754 57.8813 11.0522C57.4928 11.3815 56.7789 11.9894 56.2006 12.4876C55.9025 12.7493 55.2519 13.3066 54.7549 13.7288C52.2338 15.8733 51.52 16.4728 50.7339 17.1314C49.4056 18.2459 48.6646 18.9636 47.8333 19.9261C47.4086 20.4158 46.8032 21.1166 46.4779 21.4881C44.8604 23.3456 42.5924 25.9546 42.0683 26.5541C41.743 26.9256 41.4177 27.2971 41.3364 27.39C41.2641 27.4744 41.0563 27.7108 40.8846 27.905C40.7129 28.0992 40.4418 28.4116 40.2882 28.5889C40.1346 28.7747 39.4117 29.6021 38.6798 30.438C37.0353 32.3208 36.8094 32.5741 33.0594 36.8971C31.3877 38.8222 29.6709 40.7979 29.2372 41.2876C27.6649 43.0607 27.5113 43.2464 27.5113 43.3478C27.5113 43.4322 29.5263 45.2728 29.6709 45.315C29.698 45.3235 30.0685 44.9351 30.4932 44.4454C30.9179 43.9557 31.4962 43.2802 31.7853 42.9509C32.0745 42.6132 32.3817 42.267 32.463 42.1741C32.5444 42.0813 32.8696 41.7098 33.1859 41.3467C33.5022 40.9921 33.7913 40.6966 33.8365 40.6966C33.8817 40.6966 33.9269 40.8232 33.9449 40.9668C33.9605 41.1264 34.0915 41.25 34.2518 41.2563L35.0564 41.2876C36.0955 41.3298 36.1678 41.3467 36.6015 41.6084C37.0081 41.8449 37.5051 42.3177 37.8846 42.8158C37.975 42.934 37.9931 44.724 37.975 51.6475C37.9479 61.0364 37.966 60.6565 37.4599 60.876C37.2702 60.9604 35.6889 61.104 34.7582 61.1293C34.6441 61.1293 34.5524 61.2231 34.5549 61.3371L34.5775 62.3704C34.5925 63.0649 35.1598 63.6201 35.8545 63.6201H39.8455H43.8367C44.5269 63.6201 45.0863 63.0606 45.0863 62.3704V62.3327C45.0863 61.6534 44.5456 61.0974 43.8665 61.0786C42.3394 61.028 41.9328 60.9098 41.7701 60.4707C41.6436 60.0992 41.5442 47.2823 41.6798 47.2823C41.7249 47.2823 41.978 47.5356 42.249 47.848C42.5201 48.1604 43.3514 49.1061 44.0924 49.9504C44.8424 50.7947 46.1436 52.2723 46.9839 53.2348C48.7098 55.2021 50.7248 57.4902 52.4417 59.4406C53.0742 60.1583 54.2308 61.4839 55.0169 62.3704L55.7658 63.2252C56.1972 63.7176 56.8201 64 57.4747 64C58.0391 64 58.4969 63.5433 58.4983 62.9789L58.5229 53.1335C58.55 44.6818 58.5862 42.191 58.6675 41.9462C58.8572 41.4311 59.1374 41.3467 60.7006 41.3045L60.7712 41.3027C61.4709 41.2849 62.0289 40.7126 62.0289 40.0127C62.0289 39.3179 61.4656 38.7546 60.7708 38.7546H56.7428H52.6892C52.0079 38.7546 51.4599 39.3147 51.4748 39.9958C51.49 40.6963 52.0508 41.2625 52.7512 41.2843L52.8573 41.2876C54.6374 41.3551 54.7368 41.4142 54.8904 42.495C54.9989 43.2633 55.0079 54.1214 54.8995 54.1214C54.8633 54.1214 54.0772 53.2602 53.1645 52.2047C52.2519 51.1578 51.1947 49.9504 50.8242 49.5282C50.4447 49.1061 49.7037 48.2533 49.1616 47.6369C48.023 46.3198 47.9869 46.2776 47.5712 45.8047C47.011 45.1715 46.1887 44.2259 45.2219 43.1113C44.6978 42.5203 43.9478 41.6591 43.5502 41.2032C43.1526 40.7557 42.5111 40.0211 42.1225 39.5736C41.6748 39.0533 41.0237 38.7524 40.3372 38.7485L38.4449 38.7377L37.3237 38.7282C36.5972 38.722 36.2133 37.8658 36.6919 37.3193C37.3605 36.5509 38.4629 35.2929 39.1226 34.5245C39.7912 33.7478 40.3876 33.0638 40.4509 33.0047C40.5141 32.9372 40.7129 32.7177 40.8846 32.5066C41.0563 32.2955 41.2189 32.1098 41.246 32.0844C41.2731 32.0591 41.5352 31.7551 41.8334 31.409C42.1316 31.0628 42.4207 30.7335 42.4659 30.6828C42.5201 30.6322 42.8454 30.2522 43.2069 29.8385C43.5683 29.4248 44.8876 27.905 46.1436 26.4697C48.2851 24.0042 49.1254 23.0417 51.3212 20.5087C51.8182 19.9346 52.6224 19.0058 53.1194 18.4485C54.041 17.4016 57.8994 12.9604 59.4084 11.2211C59.8783 10.6807 60.5921 9.86174 60.9897 9.39735C62.6404 7.51683 63.4748 6.55744 63.8125 6.15312C63.943 5.9969 63.9098 5.96713 63.7457 6.08759Z" fill="black" fill-opacity="0.2"/>
<defs>
<linearGradient id="paint0_linear_7_13" x1="-4.99766e-07" y1="28.1076" x2="31.0294" y2="28.1076" gradientUnits="userSpaceOnUse">
<stop stop-color="#F9F295" stop-opacity="0.46"/>
<stop offset="0.333333" stop-color="#E0AA3E" stop-opacity="0.46"/>
<stop offset="0.66" stop-color="#F3C264"/>
<stop offset="1" stop-color="#EFC531" stop-opacity="0.32"/>
</linearGradient>
<linearGradient id="paint1_linear_7_13" x1="27.5113" y1="34.9551" x2="61.2701" y2="34.9551" gradientUnits="userSpaceOnUse">
<stop stop-color="#F9F295" stop-opacity="0.46"/>
<stop offset="0.333333" stop-color="#E0AA3E" stop-opacity="0.46"/>
<stop offset="0.66" stop-color="#F3C264"/>
<stop offset="1" stop-color="#EFC531" stop-opacity="0.32"/>
</linearGradient>
</defs>
</svg>
