<svg width="40" height="40" viewBox="0 0 40 40" fill="none" xmlns="http://www.w3.org/2000/svg">
<g clip-path="url(#clip0_48_1810)">
<path d="M20 0C8.9543 0 0 8.9543 0 20C0 31.0457 8.9543 40 20 40C31.0457 40 40 31.0457 40 20C40 8.9543 31.0457 0 20 0ZM20 36.25C11.0254 36.25 3.75 28.9746 3.75 20C3.75 11.0254 11.0254 3.75 20 3.75C28.9746 3.75 36.25 11.0254 36.25 20C36.25 28.9746 28.9746 36.25 20 36.25Z" fill="#E9CF8C"/>
<path d="M20 0C8.9543 0 0 8.9543 0 20C0 31.0457 8.9543 40 20 40C31.0457 40 40 31.0457 40 20C40 8.9543 31.0457 0 20 0ZM20 36.25C11.0254 36.25 3.75 28.9746 3.75 20C3.75 11.0254 11.0254 3.75 20 3.75C28.9746 3.75 36.25 11.0254 36.25 20C36.25 28.9746 28.9746 36.25 20 36.25Z" fill="url(#paint0_linear_48_1810)" fill-opacity="0.69"/>
<path d="M20 0C8.9543 0 0 8.9543 0 20C0 31.0457 8.9543 40 20 40C31.0457 40 40 31.0457 40 20C40 8.9543 31.0457 0 20 0ZM20 36.25C11.0254 36.25 3.75 28.9746 3.75 20C3.75 11.0254 11.0254 3.75 20 3.75C28.9746 3.75 36.25 11.0254 36.25 20C36.25 28.9746 28.9746 36.25 20 36.25Z" fill="black" fill-opacity="0.2"/>
<path d="M13.8572 27.6072L17.3928 31.1428L28.5355 20L17.3927 8.8573L13.8573 12.3928L21.4644 20L13.8572 27.6072Z" fill="#E9CF8C"/>
<path d="M13.8572 27.6072L17.3928 31.1428L28.5355 20L17.3927 8.8573L13.8573 12.3928L21.4644 20L13.8572 27.6072Z" fill="url(#paint1_linear_48_1810)" fill-opacity="0.69"/>
<path d="M13.8572 27.6072L17.3928 31.1428L28.5355 20L17.3927 8.8573L13.8573 12.3928L21.4644 20L13.8572 27.6072Z" fill="black" fill-opacity="0.2"/>
</g>
<defs>
<linearGradient id="paint0_linear_48_1810" x1="-5.96046e-07" y1="20" x2="37.0073" y2="20" gradientUnits="userSpaceOnUse">
<stop stop-color="#F9F295" stop-opacity="0.46"/>
<stop offset="0.333333" stop-color="#E0AA3E" stop-opacity="0.46"/>
<stop offset="0.66" stop-color="#F3C264"/>
<stop offset="1" stop-color="#EFC531" stop-opacity="0.32"/>
</linearGradient>
<linearGradient id="paint1_linear_48_1810" x1="13.8572" y1="20.0001" x2="27.4373" y2="20.0001" gradientUnits="userSpaceOnUse">
<stop stop-color="#F9F295" stop-opacity="0.46"/>
<stop offset="0.333333" stop-color="#E0AA3E" stop-opacity="0.46"/>
<stop offset="0.66" stop-color="#F3C264"/>
<stop offset="1" stop-color="#EFC531" stop-opacity="0.32"/>
</linearGradient>
<clipPath id="clip0_48_1810">
<rect width="40" height="40" fill="white"/>
</clipPath>
</defs>
</svg>
